<?xml version="1.0" encoding="UTF-8"?>
<svg width="128pt" height="128pt" version="1.1" viewBox="0 0 128 128" xmlns="http://www.w3.org/2000/svg">
 <path d="m117.05 98.594v-1.0977l-0.77344-0.83984-0.51562-1.5508-2.1328-1.8086v-2.0664l-21.82-18.449c-0.019531 0.046875-0.039062 0.10156-0.066406 0.16016l-8.5117-7.1992-28.711-24.273-1.0312-41.469h-43.277l-0.38672 0.22656s0.28906 0.61328 0.38672 0.87109c0.097656 0.25781 0.32422 1.0352-0.28906 1.582-0.61719 0.55078-0.35547 0.96875-0.35547 0.96875s0.67969 0.48437 1.1289 0.71094c0.45312 0.22656 0.9375 2.6797 0.9375 3.3906s-0.58203 2.6797-0.90625 3.8125c-0.32422 1.1289 0.03125 2 0.28906 2.4844 0.25781 0.48438-1.4219 3.5859-1.4219 3.5859s-2.2227 3.875-1.7109 4.5547c0.50781 0.67969 0.41797 2.4531 0.41797 2.4531l2.7773 2.5195v0.90625s2.6484 2.7773 2.5195 3.0039c-0.12891 0.22656 0.19141 1.5195 0.45313 1.9688 0.25781 0.45313-0.28906 2.7461-0.28906 2.7461v1.9688s0.58203 2.0977 1.0352 2.7461c0.45312 0.64453-0.19141 2.1953-0.19141 2.1953s-0.12891 0.45313 0 0.64453 3.2305 4.0039 3.7148 4.3281 3.0664 3.1328 3.0664 3.1328v1.0664l0.74219 0.35547 0.67969 1.293 0.03125 0.18359c2.2266 1.4219 0.050781 0.28125 0.097656 0.5625 0.12891 0.74219-0.80859 1.1641-0.80859 1.1641v0.9375l0.71094-0.03125s0.64453-0.64453 1.4844 0.16016c0.83984 0.80859 1.9062 1.1289 1.9062 1.1289s0.61328 1.0977 1.293 1.293c0.67969 0.19141 0.22656 2.875 0.22656 2.875v1.2578l0.76953 1.1289s0.23437 0.19141 0.070312 1.1055c-0.16016 0.91406 0 1.9609 0 1.9609l2.0977 2.3242 1.6797 1.3867s0.28906 0.29297 1.6797 0.035156c1.3906-0.25781 1.2578 0.96875 1.2578 0.96875l0.35547 1.6445-0.67969 1.6484s0.25781-0.90234-0.83984-0.29297c-1.0977 0.61328 0.16016 2.7461 0.16016 2.7461v1.6445s1.0312 1.7773 1.7422 1.7109 2.0977 2.7773 2.0977 2.7773l0.83984 0.19141 0.22656 1.4531 0.41797 0.32422s1.0664 0.71094 1.2266 1.4531c0.16016 0.74219-0.64453 1.1641 0.96875 1.5508 1.6172 0.38672 0.80859-0.16016 1.0977 0.58203s1.8398 2.0352 1.8398 2.0352l1.1289 2.1328c-0.16016 0.22656 0 1.2578 0 1.2578l0.96875 0.67578 1.6172 0.22656s0.22656 0.35547 0.22656 0.87109-0.38672 1.7773-0.38672 2.4531c0 0.67969 1.6797 0.41797 0.83984 0.67969-0.83984 0.25781-0.39453 1.4219-0.39453 1.4219s0.65234-0.25781 0.19922 1.3555c-0.45313 1.6172 0 1.3555 0 1.3555s0.96875-0.12891 1.293 0.83984c0.32422 0.96875 1.293 0.77344 1.293 0.77344s1.0977-0.19141 2.5859-0.38672c1.4844-0.19531 3.4883 0.58203 3.4883 0.58203s3.9414 0.45313 4.2656 0.45313c0.24609 0 1.2109 0 1.9102 0.60547 0.007813 0.13672 0.015625 0.26953 0.023437 0.40625 0.74219 0.39844 1.5859 0.82422 1.7578 0.82422 0.32422 0-0.45312 0.96875 2 0.32422 2.4531-0.64453 2.8438-0.19141 2.8438-0.19141s1.4844 2.1953 1.1641 2.6484c-0.32422 0.45312-0.19141 1.0977 0.12891 1.0977 0.32422 0 0.77344 0.64453 1.4844 0.71094 0.71094 0.0625 0.71094-1.1641 0.71094-1.1641s0.38672-0.64453 1.3555 0.19141c0.96875 0.83984 2.4531 1.8086 2.4531 1.8086s0.83984 1.293 2.8398 2.0664c2.0039 0.77344 4.8438 6.5234 4.5195 7.75-0.32422 1.2266 0.25781 1.2266 0.25781 1.2266s-0.25781 0.64453 0.77344 1.1641c1.0352 0.51562 0.32422 3.1641 1.2266 2.1953 0.90234-0.96875 27.129-2.6484 29.645-5.1016 2.5195-2.4531-0.0625-5.0391-0.25781-4.5859-0.19141 0.45312-2.2617 0.64453-1.6172-0.51562 0.64453-1.1641 0.12891-2.0664 0.12891-2.0664s-0.71094-1.6797-0.32422-1.6797c0.38672 0 0.83984-1.0977 1.0352-1.6172 0.19141-0.51562 0.25781-1.418 0.25781-1.418s0.066406-1.9375 0.51562-1.8086c0.45312 0.12891-2-1.1641-0.38672-3.1016 1.6172-1.9375-0.83984-1.293 0.83984-2.0664 1.6797-0.77344 2.5859-2.1953 2.9727-3.0352 0.39844-0.83594-3.0898-2.1914-3.0898-2.1914z" fill="#fff"/>
</svg>
