<?xml version="1.0" encoding="UTF-8"?>
<svg width="128pt" height="128pt" version="1.1" viewBox="0 0 128 128" xmlns="http://www.w3.org/2000/svg">
 <path d="m98.559 18.559c-0.12891 0.12891-0.51172 0.12891-0.25781 0.25781 0.12891 0.12891 0.12891 0.12891 0.25781 0.12891h0.25781c0 0.12891 0.12891 0.12891 0 0.12891v0.25781s0.12891-0.25781 0.25781-0.12891c0.12891 0 0.12891 0.12891 0.12891 0.25781 0 0.12891-0.12891 0.12891-0.12891 0.25781h0.12891c0.12891 0 0.38281 0 0.38281-0.25781-0.12891 0-0.25781 0-0.25781-0.12891 0.25781-0.12891 0.25781-0.38281 0.38281-0.64062 0-0.12891 0-0.12891 0.25781-0.12891h0.38281v0.12891c-0.12891 0.25781-0.12891 0.76953-0.12891 1.1523v1.2812 0.76953c0 0.38281-0.25781-0.38281-0.25781-0.38281 0-0.25781-0.12891-1.793-0.64062-1.2812 0 0.12891 0.25781 0.25781-0.12891 0.38281-0.12891 0 0 0.25781 0 0.25781 0 0.12891-0.25781 0.12891-0.38281 0.25781-0.12891 0 0 0.25781 0 0.25781h-0.38281c0 0.12891-0.25781 0.12891-0.25781 0.12891 0.38281 0 0.12891 0.38281 0.38281 0.51172 0.12891 0.12891 0.89453 0.12891 0.89453 0.12891 0-0.12891-0.12891-0.64062-0.12891-0.76953 0 0 0.25781 0.12891 0.38281 0.12891 0.25781 0 0.12891 0.12891 0.12891 0.38281 0 0.12891 0.12891 0.25781 0.12891 0.38281 0 0 0-0.38281 0.12891-0.25781l0.38281 0.38281v0.38281l0.12891-0.25781c0.25781-0.64062 0.12891 0.38281 0.12891 0.64062l0.12891 0.25781s0 0.25781 0.12891 0.38281h-0.12891c-0.25781-0.12891-0.38281 0.25781-0.64062 0.38281-0.12891 0-0.25781-0.12891-0.38281-0.25781-0.12891 0-0.25781 0.12891-0.38281 0.12891 0 0-0.12891 0-0.12891-0.12891h-0.25781s-0.51172 0.12891-0.64062 0.12891c-0.12891 0-0.12891-0.12891-0.25781-0.25781l-0.25781-0.25781c-0.12891 0-0.12891 0.12891-0.25781 0.12891s-0.12891 0.12891-0.25781 0.12891c-0.12891 0.12891-0.12891 0-0.25781 0 0 0-0.25781 0-0.25781-0.12891-0.12891 0 0-0.12891 0-0.12891l-0.12891-0.12891c0 0.25781 0.25781 0.51172 0.51172 0.51172 0.12891 0 0.12891 0.12891 0.12891 0.12891 0.12891 0.12891 0.25781 0.12891 0.25781 0.38281 0 0.12891 0 0.64063-0.12891 0.76953-0.12891 0-0.25781-0.12891-0.38281-0.12891-0.12891 0-0.25781 0.12891-0.38281 0.25781 0 0-0.12891 0-0.12891 0.12891-0.12891 0.12891-0.25781 0.25781-0.25781 0.38281l-0.12891 0.12891s-0.12891 0.12891 0 0.12891l0.12891 0.12891v-0.25781l0.25781-0.25781v0.25781 0.12891l0.12891 0.12891c0.12891 0.12891 0.25781 0.12891 0.38281 0.25781v0.38281c0 0.12891-0.12891 0-0.25781 0.12891 0 0.12891 0 0.25781-0.12891 0.25781-0.12891 0.12891-0.12891 0.25781-0.12891 0.38281v0.51172l-0.12891-0.12891c-0.12891 0-0.12891 0.12891-0.25781 0.12891-0.10547-0.003906-0.23438-0.003906-0.23438 0.125-0.12891 0.12891-0.12891 0.12891-0.12891 0.25781l-0.12891 0.12891c0 0.12891-0.12891 0.12891 0 0.25781h0.12891c0.12891 0 0.12891-0.25781 0.25781-0.25781h0.25781v-0.25781l0.12891-0.12891h0.12891s0 0.25781 0.12891 0.25781c0 0.12891 0.12891 0.25781 0.12891 0.38281 0 0.12891 0 0.38281-0.12891 0.64062 0 0.12891 0 0.25781-0.12891 0.25781l-0.12891 0.12891c0.25781 0.12891 0.12891 0.38281 0.38281 0.51172 0 0.12891 0.12891 0.12891 0.12891 0.25781v0.25781s0.12891-0.12891 0.25781-0.12891 0.12891 0.25781 0.25781 0.25781c0.25781 0 0.25781 0.12891 0.38281 0.38281v0.25781c0 0.12891 0.12891 0.12891 0 0.25781-0.12891 0.12891-0.12891 0.12891-0.12891 0.25781v0.25781s-0.12891 0-0.12891 0.12891c0.12891 0.12891 0.12891 0.12891 0 0.25781v0.25781c0.12891 0.12891 0 0.38281 0.12891 0.51172s0.25781 0.25781 0.25781 0.51172c0 0.12891 0.12891 0.12891 0.12891 0.25781v0.25781s0.12891 0 0.12891 0.12891c0.12891 0.12891 0.12891 0.38281 0 0.64062 0 0.12891 0 0.25781-0.12891 0.38281 0 0.12891-0.12891 0.12891-0.12891 0.25781-0.12891 0-0.12891 0.12891-0.12891 0.12891h-0.25781c-0.25781 0-0.64062 0-0.64062 0.38281 0 0.25781 0.12891 0.25781 0.25781 0.38281 0.12891 0.12891 0.12891 0.12891 0.12891 0.25781v0.12891c-0.12891 0-0.12891 0.38281 0 0.25781 0.12891 0 0.25781-0.12891 0.38281-0.12891v0.51172c0 0.12891-0.12891 0.25781-0.25781 0.25781-0.12891 0.12891-0.38281-0.12891-0.64062 0-0.12891 0-0.12891 0.12891-0.25781 0.12891s-0.12891 0-0.25781 0.12891c0 0.12891-0.12891 0.25781-0.12891 0.25781 0 0.12891 0.12891 0.12891 0 0.25781-0.25781 0.12891 0 0.38281 0.12891 0.38281 0.25781 0.12891 0.12891 0.51172 0.25781 0.64062 0 0.12891 0 0.25781-0.12891 0.25781-0.12891 0.12891 0 0.12891 0 0.25781l-0.12891 0.12891c-0.12891 0.25781 0.64063 0.25781 0.51172 0.51172v0.25781c0 0.12891 0.12891 0.12891-0.12891 0.12891h-0.12891s-0.12891 0-0.12891 0.12891c0.25781 0.12891 0.38281 0.38281 0.38281 0.64062v0.12891h-0.25781c-0.12891 0.12891-0.12891 0.51172 0 0.51172 0.12891 0.12891 0.25781 0.12891 0.38281 0.12891 0.12891 0.12891 0.12891 0.25781 0.12891 0.25781l0.12891 0.25781c0 0.12891 0 0.25781 0.12891 0.38281 0 0.12891 0.12891 0.12891 0.25781 0.25781 0 0.12891 0 0.25781 0.12891 0.38281 0 0.12891 0.12891 0.12891 0.25781 0.12891 0.25781 0 0.51172-0.12891 0.64062-0.25781 0.12891 0 0.25781-0.12891 0.25781-0.12891 0.12891-0.12891 0.12891-0.12891 0.12891-0.38281 0.12891-0.38281-0.64062-0.51172-0.12891-0.89453 0-0.12891 0-0.25781-0.12891-0.25781l-0.76953-0.6875c-0.12891-0.12891-0.12891-0.12891-0.25781-0.12891-0.12891 0-0.12891 0-0.25781-0.12891-0.12891-0.12891-0.25781-0.12891-0.38281-0.25781-0.12891 0-0.12891 0-0.12891-0.12891s0.12891-0.51172 0-0.51172c-0.125 0.007813-0.25-0.12109-0.37891-0.12109 0-0.12891 0.38281-0.38281 0-0.38281-0.25781 0 0-0.25781 0-0.38281v-0.64062c0-0.25781-0.25781-0.25781-0.25781-0.38281l-0.12891-0.12891c0-0.12891-0.12891-0.12891 0-0.25781s0.12891-0.12891 0.12891-0.38281l0.12891-0.25781h0.12891c0.12891 0 0.12891-0.12891 0.25781-0.12891 0.12891 0 0.12891 0.12891 0.25781 0.12891 0.25781 0 0.25781-0.12891 0.38281-0.12891 0.12891-0.12891 0.12891-0.25781 0.12891-0.51172 0-0.12891 0-0.25781-0.12891-0.38281 0 0-0.38281 0.12891-0.25781 0 0 0 0.38281-0.25781 0.12891-0.25781-0.12891 0-0.38281-0.51172-0.25781-0.76953h0.25781 0.25781c0.25781 0 0.38281 0 0.51172-0.25781 0.12891-0.12891 0.12891-0.12891 0.12891-0.25781v-0.12891c0-0.12891-0.12891-0.12891 0-0.25781h0.12891c0.12891 0 0.12891 0 0.12891-0.12891s0-0.38281-0.12891-0.51172h0.12891v-0.25781c0-0.12891 0-0.25781-0.12891-0.38281v-0.38281c-0.12891 0-0.25781 0-0.25781-0.12891 0-0.12891 0-0.25781-0.12891-0.38281 0-0.25781-0.25781-0.38281-0.12891-0.64062 0.12891 0 0.25781 0 0.25781-0.12891 0.12891-0.25781-0.25781-0.12891-0.12891-0.38281l0.12891-0.12891h0.25781s0-0.12891-0.12891-0.12891h-0.12891c-0.25781 0-0.12891 0-0.25781-0.25781 0 0-0.12891 0-0.25781-0.12891 0 0-0.12891 0.12891-0.12891 0-0.12891-0.12891 0-0.25781-0.12891-0.25781-0.12891-0.12891-0.25781-0.12891-0.38281-0.25781-0.12891 0-0.12891-0.25781-0.25781-0.25781 0 0-0.12891 0.25781-0.12891 0.12891-0.12891-0.25781-0.12891-0.38281 0-0.64062 0-0.12891 0.12891-0.25781 0.25781-0.38281 0.25781-0.12891-0.12891-0.25781 0.12891-0.51172 0.12891-0.12891 0.25781-0.25781 0.51172-0.25781 0-0.12891-0.51172 0-0.64062 0-0.12891 0-0.25781 0-0.25781-0.12891 0 0-0.12891 0-0.12891-0.12891v-0.12891c0-0.12891 0-0.12891 0.12891-0.12891 0.12891 0 0.25781 0 0.25781-0.12891 0.12891-0.12891 0-0.25781 0.12891-0.25781 0 0 0.12891 0 0.12891-0.12891 0 0-0.12891 0-0.25781-0.12891 0-0.12891 0.25781-0.25781 0.38281-0.25781 0.12891-0.12891 0.12891-0.25781 0-0.38281-0.12891-0.12891-0.25781-0.12891-0.38281-0.25781-0.12891-0.12891-0.25781-0.25781-0.25781-0.38281 0-0.12891 0.12891-0.25781 0-0.38281 0-0.12891-0.12891-0.25781 0-0.38281 0.12891 0 0.51172 0.51172 0.64062 0 0-0.25781 0.12891-0.64062 0-0.76953-0.12891-0.12891-0.12891-0.51172 0.12891-0.25781 0.38281 0.25781 0.76953 0.25781 1.0234 0.51172 0.12891 0.12891 0.38281 0 0.38281-0.12891 0.003906-0.097657-0.25391-0.22656-0.25391-0.35547h0.25781 0.25781c0.12891 0 0.25781-0.12891 0.38281-0.12891 0 0 0.12891 0.12891 0.12891 0.25781s0.12891 0.12891 0.25781 0.12891c0.25781 0 0.25781-0.38281 0.38281-0.38281h0.38672s0.12891 0 0.12891 0.12891v0.76953 0.51172c0.12891 0.12891 0.12891 0.64062 0.12891 0.89453 0.12891 0.25781 0 0.51172 0.12891 0.76953 0.12891 0.38281 0.12891 0.76953 0.25781 1.1523 0.12891 0.51172 0.25781 1.1523 0.38281 1.6641 0.12891 0.51172 0.25781 1.1523 0.38281 1.6641 0 0.25781 0.38281 0.89453 0.25781 1.1523 0-0.12891-0.25781-0.38281-0.25781-0.51172-0.12891-0.25781-0.12891-0.38281-0.25781-0.64062v-0.38281s0 0.12891-0.12891 0.12891c-0.25781-0.12891-0.38281-0.64062-0.38281-0.76953-0.007812-0.13281-0.13281-0.64453-0.13281-0.77344-0.12891 0-0.12891 0.76953-0.12891 0.89453 0 0.12891 0 0.25781 0.12891 0.38281 0.25781 0.38281 0.38281 0.76953 0.51172 1.1523 0.12891 0.12891 0.25781 0.51172 0.25781 0.64062s0.12891 0.25781 0.12891 0.38281c0 0.25781-0.25781 0-0.12891 0.12891 0 0.12891 0.12891 0.38281 0.12891 0.38281 0.12891 0.38281 0.25781 0.76953 0.38281 1.1523l0.25781 0.76953c0 0.12891 0.12891 0.38281 0.12891 0.38281 0.25781 0.12891 0.12891 0 0.12891-0.25781-0.12891-0.12891-0.12891-0.38281-0.25781-0.51172 0-0.12891-0.12891-0.25781-0.25781-0.38281-0.12891-0.25781 0-0.38281-0.12891-0.64062-0.12891-0.12891-0.12891-0.38281-0.12891-0.51172v-0.64062c-0.12891-0.25 0.25391-0.125 0.25391-0.25l0.25781 1.1523c0.12891 0.51172 0.12891 1.0234 0.25781 1.5352 0.25781 0.51172 0.38281 1.1523 0.51172 1.6641 0.12891 0.25781 0.12891 0.76953 0.38281 0.89453v0.12891c0 0.38281 0.38281 1.0234 0.51172 1.4062 0.12891 0.38281 0.38281 1.0234 0.64063 1.4062 0 0.25781 0.38281 0.89453 0.51172 1.1523v0.12891c0.12891 0.12891 0.12891 0.38281 0.12891 0.51172l0.89453 2.0469 0.51172 1.0234c0.25781 0.38281 0.25781 0.76953 0.64063 1.1523v0.25781s0 0.12891 0.12891 0.12891v0.12891h-0.12891s-0.25781-0.25781-0.25781-0.38281c-0.12891-0.25781-0.25781-0.51172-0.38281-0.76953-0.25781-0.38281-0.38281-0.89453-0.64062-1.4062-0.25781-0.38281-0.38281-1.0234-0.76953-1.4062 0-0.12891-0.12891-0.25781-0.12891-0.38281 0-0.12891 0-0.38281-0.12891-0.51172s-0.12891-0.25781-0.12891-0.38281c0 0 0 0.12891-0.12891 0.12891 0 0.12891-0.12891 0.12891 0 0.12891 0.12891 0.12891 0.12891 0.25781 0.25781 0.38281 0.12891 0.25781 0.12891 0.38281 0.25781 0.64062 0 0.12891 0.12891 0.25781 0.12891 0.25781 0 0.12891 0.12891 0.25781 0.12891 0.38281v0.25781c0.12891 0.12891 0.12891 0.25781 0.25781 0.51172 0.12891 0.25781 0.25781 0.51172 0.38281 0.89453 0.12891 0.25781 0.25781 0.51172 0.38281 0.76953 0.12891 0.25781 0.12891 0.51172 0.25781 0.64062 0.12891 0.12891 0.25781 0.38281 0.38281 0.51172 0 0.12891 0.12891 0.12891 0.12891 0.25781 0 0.12891 0.12891 0 0.12891 0v-0.12891 0.64062c0.12891 0.25781 0.25781 0.76953 0.51172 0.89453 0.12891 0.12891 0.12891 0.25781 0.12891 0.38281 0.12891 0.12891 0.25781 0.51172 0.25781 0.64062 0.38281 0.38281 0.51172 1.1523 0.89453 1.6641l1.2812 1.793c0.38281 0.51172 0.89453 0.89453 1.4062 1.0234 0-0.12891-0.38281-0.51172-0.51172-0.51172-0.12891-0.12891-0.25781-0.51172-0.38281-0.64062l-0.12891-0.12891-0.25781-0.51562c-0.12891-0.12891-0.12891-0.25781-0.25781-0.38281l-0.25781-0.51172c-0.12891-0.12891-0.12891-0.25781-0.25781-0.38281 0-0.12891-0.12891-0.25781-0.12891-0.38281 0-0.12891-0.25781-0.38281-0.25781-0.51172-0.12891-0.25781-0.38281-0.38281-0.38281-0.64062 0-0.12891-0.12891-0.25781-0.12891-0.38281 0-0.12891-0.12891-0.25781-0.12891-0.38281-0.12891-0.12891-0.38281-0.51172-0.51172-0.64062l-0.38281-0.51172-0.12109-0.26562c-0.25781 0 0-0.25781-0.12891-0.38281 0-0.12891-0.12891-0.25781-0.12891-0.38281 0.12891 0.12891 0.25781 0.51172 0.38281 0.64062 0.12891 0.12891 0.12891 0.38281 0.25781 0.51172 0.25781 0.25781 0.25781 0.51172 0.51172 0.76953l0.38281 0.64062v0.12891c0 0.12891 0.25781 0.51172 0.38281 0.64062 0 0.12891 0.25781 0.38281 0.25781 0.51172 0.12891 0.25781 0.25781 0.51172 0.38281 0.76953 0.12891 0.12891 0.38281 0.51172 0.38281 0.64062 0.12891 0.51172 0.64062 0.89453 0.89453 1.4062l0.51172 0.64062c0.12891 0.12891 0.25781 0.38281 0.38281 0.51172l0.12891 0.25781c0 0.25781 0.38281 0.51172 0.38281 0.64063v0.64062c0.12891 0.38281 0.25781 0.76953 0.38281 1.0234 0 0.12891 0.25781 0.25781 0.25781 0.38281l-0.37891 0.24609c-0.12891 0.12891-0.25781 0.25781-0.38281 0.38281 0 0.12891-0.76953 0.12891-0.89453 0.12891-0.12891-0.25781 0.38281-0.12891 0.51172-0.25781v-0.12891-0.38281-0.12891s0-0.12891 0.12891-0.12891c0 0 0.12891-0.12891 0.12891-0.25781 0-0.12891 0-0.25781 0.12891-0.38281l-0.003906-0.12109v-0.12891c0-0.12891 0.12891-0.51172 0-0.51172v0.12891c0 0.12891-0.12891 0.25781-0.12891 0.25781l-0.12891 0.12891 0.12891-0.38281c0-0.12891 0.12891-0.25781 0.12891-0.38281 0-0.12891-0.12891-0.25781-0.12891-0.38281 0-0.12891-0.12891-0.12891-0.12891-0.25781-0.12891 0-0.12891 0.12891-0.12891 0.12891h-0.12891c0 0.12891 0 0.25781 0.12891 0.38281 0.12891 0.25781 0.12891 0.64062 0 0.76953 0 0.12891-0.12891 0.25781-0.12891 0.38281 0 0.12891-0.12891 0.12891-0.12891 0.25781 0 0.12891-0.12891 0.38281-0.12891 0.51172-0.12891 0.25781-0.12891 0.64062-0.12891 0.76953v0.89453 0.51172 0.51172l-0.12891-0.51172c-0.12891-0.25781-0.12891-0.51172-0.12891-0.89453 0-0.25781-0.12891-0.38281-0.25781-0.64062v0c0 0.38281 0.12891 0.64062 0.12891 1.0234 0 0.38281 0 0.64062 0.12891 1.0234 0 0.12891 0.12891 0.38281 0.12891 0.64062 0.12891 0.25781 0.12891 0.51172 0.25781 0.76953 0 0.12891 0.12891 0.25781 0.12891 0.38281 0 0.12891 0.12891 0.25781 0.12891 0.25781-0.12891 0-0.12891-0.38281-0.25781-0.38281-0.12891-0.25781-0.25781-0.51172-0.38281-0.76953 0-0.12891 0-0.25781-0.12891-0.38281 0-0.12891-0.12891-0.38281-0.25781-0.51172 0-0.12891-0.12891-0.38281-0.12891-0.38281v-1.2812c0-0.12891-0.12891-0.25781-0.12891-0.25781-0.12891-0.38281-0.12891-0.76953-0.12891-1.1523v-0.51172c-0.12891-0.12891-0.12891-0.25781-0.12891-0.38281v-0.38281c0-0.25781 0-0.38281 0.12891-0.51172 0.12891-0.12891 0.25781-0.38281 0.12891-0.38281 0 0 0-0.12891-0.12891-0.12891 0-0.12891 0.25781-0.12891 0.25781-0.12891l-0.12891-0.12891c-0.12891 0-0.12891 0-0.25781-0.12891s-0.12891-0.12891-0.25781-0.12891c-0.25781 0.12891-0.51172-0.25781-0.51172-0.51172 0-0.12891 0.12891-0.12891 0.12891-0.25781s-0.12891-0.25781 0-0.38281v-0.38281c0-0.12891 0.12891 0 0.12891-0.12891 0.12891 0 0.12891-0.12891 0.25781-0.12891h0.25781c0-0.12891-0.25781-0.12891-0.25781-0.25781-0.12891-0.12891-0.25781-0.25781-0.25781-0.38281-0.12891-0.12891-0.12891-0.25781-0.25781-0.38281 0 0.12891-0.12891 0-0.25781 0-0.12891-0.12891-0.64062-0.51172-0.76953-0.51172 0 0.76953 0.12891 1.4062 0.38281 2.1758 0 0.12891 0 0.25781 0.12891 0.38281v0.38281l0.12891 0.12891v0.38281c0 0.12891 0.12891 0.38281 0.12891 0.51172 0.14062 0.25 0.14062 0.37891 0.14062 0.63281v0.38281c0 0.25781 0.12891 0.25781 0.12891 0.51172 0 0.12891 0.12891 0.25781 0.12891 0.38281 0 0.51172 0.25781 1.0234 0.38281 1.4062 0 0.12891 0.12891 0.25781 0.12891 0.51172 0.12891 0.38281 0.51172 0.89453 0.51172 1.2812 0.12891 0.12891 0.12891 0.38281 0.12891 0.51172 0.12891 0.38281 0.25781 0.76953 0.38281 1.0234l0.25781 0.51172c0.12891 0.25781 0.25781 0.38281 0.25781 0.64062l0.64062 1.2812c0.12891 0.25781 0.25781 0.38281 0.25781 0.64062 0.12891 0.12891 0.12891 0.51172 0.25781 0.64062 0 0.12891 0.12891 0.25781 0.12891 0.38281 0.12891 0.12891 0.12891 0.38281 0.25781 0.51172 0.12891 0.25781 0.25781 0.51172 0.38281 0.76953 0.12891 0.12891 0.25781 0.38281 0.38281 0.64062 0 0.12891 0.12891 0.38281 0.25781 0.51172 0.12891 0.12891 0.12891 0.38281 0.25781 0.51172 0.12891 0.25781 0.25781 0.51172 0.38281 0.64062 0.12891 0.12891 0.25781 0.38281 0.38281 0.64062 0 0.12891 0.12891 0.25781 0.12891 0.38281 0 0.12891 0.12891 0.38281 0.12891 0.51172 0 0.51172 0.12891 1.0234 0.25781 1.5352v0.12891c0.12891 0.12891 0.12891 0.38281 0.25781 0.51172 0 0.12891 0.12891 0.25781 0.12891 0.38281l0.38281 1.2812s0 0.12891 0.12891 0.25781c0 0.12891 0.12891 0.38281 0.25781 0.51172 0.25781 0.51172 0.51172 1.0234 0.64062 1.6641 0.12891 0.12891 0.25781 0.38281 0.25781 0.64062 0.12891 0.25781 0.25781 0.51172 0.38281 0.76953 0 0.12891 0.12891 0.12891 0.12891 0.25781l0.12891 0.25781-0.25781-0.25781c0-0.25781 0-0.51172-0.25781-0.51172-0.12891 0-0.12891 0-0.25781 0.12891h-0.25781l-0.12891 0.25781c0-0.12891 0-0.12891-0.12891-0.25781l-0.13672-0.003906c0-0.12891 0-0.25781-0.12891-0.25781 0 0-0.12891-0.12891-0.25781-0.12891s-0.25781-0.12891-0.25781-0.12891c-0.12891 0 0.38281 0.25781 0.38281 0.38281 0.12891 0.12891 0.12891 0.25781 0.25781 0.25781 0.25781 0 0.12891 0.25781 0.12891 0.38281 0 0.12891 0.12891 0.38281 0.12891 0.51172 0-0.25781-0.12891-0.51172 0-0.64062 0-0.12891 0.25781 0 0.25781-0.12891 0.12891 0 0.25781 0 0.38281-0.12891 0.12891 0 0.12891 0.38281 0.25781 0.38281l0.12891 0.12891c0 0.12891 0 0.12891 0.12891 0.12891 0.12891 0.12891 0.38281 0.12891 0.51172 0.12891 0.12891 0.25781 0.12891 0.51172 0.12891 0.76953 0 0.12891 0.12891 0.25781 0.12891 0.38281 0.12891 0.12891 0.25781 0.25781 0.25781 0.51172l0.12891 0.12891c0.25781 0.25781 0.25781 0.76953 0.25781 1.1523 0 0.25781 0.12891 0.51172 0.12891 0.64063 0.12891 0.12891 0.12891 0.51172 0.12891 0.64062 0 0.12891 0.12891 0.38281 0.12891 0.51172 0.12891 0.25781 0.12891 0.38281 0.12891 0.64062v0.25781l0.12891 0.25781-0.38281-0.51172c0 0.25781 0.12891 0.51172 0.12891 0.64063v0.38281 0c0-0.12891 0.12891-0.38281 0.25781-0.38281 0.12891-0.12891 0 0.38281 0 0.51172v0.12891 0.38281 1.4062 1.0234 0.51172c0 0.25781-0.12891 0.38281-0.12891 0.64062v0.51172l-0.015625 0.76953c0 0.25781 0 0.64062-0.12891 0.76953v0.38281 0.12891 0.25781 0.51172c0 0.25781 0 0.64062-0.12891 0.89453 0 0.25781 0 0.64062-0.12891 0.89453v0.12891c-0.12891 0.38281-0.12891 0.76953-0.12891 1.1523 0 0.25781 0 0.38281-0.12891 0.64062 0 0.25781-0.12891 0.38281-0.12891 0.64062-0.12891 0.25781-0.12891 0.76953-0.12891 1.0234l0.12891 1.0234v0.89453 1.4062c0 0.25781-0.25781 0.64062-0.25781 0.89453 0 0-0.25781-0.12891-0.38281-0.25781-0.12891 0-0.38281-0.12891-0.38281-0.25781h0.12891c0.12891 0 0.25781 0 0.25781-0.12891 0-0.25781 0-0.38281 0.12891-0.64062 0.12891-0.12891 0.12891-0.51172 0-0.51172l-0.12891 0.12891c-0.12891 0-0.12891 0-0.12891-0.12891-0.12891 0 0.12891-0.12891 0.12891-0.12891v-0.12891s0.12891 0 0.12891-0.12891c-0.12891 0 0.12891-0.51172 0.12891-0.64062-0.12891 0-0.51172 0.51172-0.51172 0.64062s-0.12891 0.12891-0.12891 0.25781c0 0.25781-0.25781 0.64062-0.25781 0.89453v0.51172c0 0.12891 0 0.25781-0.12891 0.38281-0.12891 0.12891-0.25781 0.25781-0.38281 0.25781-0.12891 0-0.12891 0.12891-0.25781 0.12891-0.12891 0.12891 0 0.25781-0.12891 0.38281l-0.12891 0.12891v0.25781l-0.12891 0.25781c-0.12891 0.12891-0.25781 0.51172-0.51172 0.51172-0.12891 0.38281 0 0.51172 0 0.89453 0 0.38281-0.12891 0.64062-0.38281 0.89453 0 0.12891-0.12891 0.25781-0.12891 0.25781v0.38281c0 0.25781 0.12891 0.51172 0 0.64062-0.125 0.90234-0.37891 1.4141-0.37891 1.9297 0.12891 0.12891 0.25781 0 0.38281 0l0.25781-0.25781c0 0.25781-0.12891 0.38281-0.25781 0.64062-0.12891 0.25781-0.51172 0.25781-0.64062 0.51172-0.12891 0.25781-0.25781 0.38281-0.38281 0.51172-0.12891 0.25781-0.51172 0.25781-0.64062 0.51172-0.12891 0.12891-0.12891 0.38281-0.38281 0.51172-0.38281 0.12891-0.76953 0.12891-1.1523-0.12891-0.25781-0.12891-0.51172-0.12891-0.76953 0.12891-0.12891 0.25781-0.25781 0.25781-0.51172 0.25781-0.38281 0-0.38281 0.38281-0.76953 0.51172-0.12891 0-0.25781 0-0.38281 0.12891l-0.25781 0.38281c-0.12891-0.12891-0.25781-0.51172-0.51172-0.51172h-0.89453c-0.25781 0.12891-0.51172-0.12891-0.76953 0-0.38281 0.12891-0.51172 0.51172-0.89453 0.51172-0.64062 0.12891-1.5352-0.12891-2.1758 0.25781-0.25781 0-0.25781-0.12891-0.38281-0.38281-0.12891-0.25781-0.25781-0.25781-0.51172-0.38281-0.12891-0.25781-0.12891-0.51172-0.38281-0.89453-0.12891-0.38281-0.25781-0.38281-0.12891-0.89453l0.25781-1.0234c0.12891-0.25781 0.12891-0.25781 0.38281-0.12891 0.12891 0 0.51172-0.12891 0.64062 0.12891 0.12891 0 0 0.76953 0.12891 0.89453 0.38281 0 0.38281-0.38281 0.51172-0.64062 0 0.38281-0.38281 1.2812 0.25781 1.2812 0.38281 0 0.76953 0 1.0234 0.38281 0.25781 0.38281 0.64062 0 0.64062-0.38281-0.003906-0.39062-0.26172-0.90234-0.64453-1.1602-0.25781-0.12891-0.25781-0.25781-0.38281-0.51172-0.12891-0.25781-0.64062 0-0.89453 0.12891-0.51172 0.12891-0.38281 0-0.76953-0.25781-0.12891-0.12891-0.25781 0-0.38281 0-0.51172 0 0.12891-0.51172-0.38281-0.64062-0.25781 0-0.12891-0.12891-0.25781-0.38281 0-0.12891-0.12891-0.38281-0.12891-0.51172-0.12891-0.12891-0.12891-0.38281-0.12891-0.51172-0.12891-0.12891-0.25781 0-0.38281-0.12891 0-0.12891-0.12891-0.25781-0.25781-0.38281-0.12891-0.38281 0.38281-0.51172 0.25781-0.76953-0.12891 0-0.38281 0.12891-0.51172 0v-0.38281c0-0.12891-0.12891-0.38281-0.12891-0.51172l-0.51172-1.0234c-0.12891-0.38281-0.25781-0.38281 0.12891-0.51172 0.12891-0.12891 0.12891-0.25781 0-0.12891-0.38281 0.25781-0.25781-0.25781-0.38281-0.25781 0 0.12891-0.25781 0.76953-0.38281 0.25781-0.12891-0.25781-0.51172-0.25781-0.38281-0.64062 0.12891-0.25781 0-0.38281-0.12891-0.51172-0.25781-0.25781 0.38281 0 0.38281-0.25781 0-0.12891-0.38281-0.64062-0.51172-0.64062-0.25781 0-0.25781-0.12891-0.38281-0.38281-0.12891-0.12891-0.51172-0.12891-0.64062-0.25781-0.25781-0.12891-0.25781-0.12891-0.51172-0.25781-0.12891-0.25781-0.38281 0-0.51172-0.12891-0.12891-0.12891 0-0.25781-0.25781-0.25781-0.12891 0-0.38281 0-0.51172-0.12891-0.25781 0-0.12891 0-0.38281 0.12891-0.12891 0.12891-0.25781-0.25781-0.38281-0.25781-0.25781-0.38281-0.38281-0.25781-0.76953-0.12891-0.38281 0.12891-0.12891-0.25781-0.38281-0.38281-0.12891-0.12891-0.25781-0.38281-0.51172-0.38281-0.51172 0-0.51172-0.38281-0.89453-0.51172-0.25781-0.25781-0.25781-0.64062-0.38281-0.89453 0-0.12891-0.12891-0.38281-0.12891-0.38281l-0.25781-2.5586c0-0.25781-0.12891-0.51172-0.12891-0.76953-0.12891-0.76953-0.38281-1.4062-0.64062-2.0469-0.12891-0.25781-0.12891-0.25781 0-0.38281 0 0.12891 0.12891 0.38281 0.12891 0.64062 0 0.12891 0.12891 0.51172 0.25781 0.64062v-0.25781c0-0.51172-0.12891-1.1523-0.12891-1.6641 0-0.38281 0-0.12891-0.12891-0.25781-0.12891-0.12891-0.25781 0-0.38281 0-0.25781 0.12891-0.51172-0.12891-0.64062-0.12891 0 0-0.12891 0.12891 0 0.12891 0 0.12891 0.51172 0.51172 0.64062 0.64062 0.25781 0.38281 0 0.38281-0.12891 0.12891 0-0.12891-0.12891-0.25781-0.38281-0.38281-0.26172-0.125-0.77344-0.25391-0.77344-0.38281h0.12891l-0.12891-0.125c-0.25781-0.12891-0.25781-0.25781-0.51172-0.25781-0.38281 0-0.12891-0.12891 0-0.12891 0-0.12891-0.25781-0.25781-0.25781-0.25781 0-0.12891 0.12891-0.12891 0.12891-0.25781 0.12891 0 0.12891 0.25781 0.25781 0.25781 0.125 0.003907 0.25391-0.25391 0.38281-0.25391 0-0.12891 0.25781-0.12891 0.38281-0.25781 0.12891-0.12891 0.12891-0.38281 0.25781-0.38281 0-0.25781 0.12891-0.38281 0.25781-0.64062 0-0.25781 0.12891-0.51172 0.38281-0.64062 0.25781-0.12891 1.1523-0.64062 1.1523-0.89453-0.51172 0-1.0234 0.38281-1.2812 0.76953l-0.38281 0.51172c-0.12891 0.12891 0.12891 0.25781 0.12891 0.25781 0 0.12891-0.12891 0.12891-0.12891 0.25781s-0.38281 0.89453-0.38281 0.89453c0-0.12891-0.25781-0.12891-0.38281 0-0.25781 0.25781-0.25781 0-0.51172 0.12891-0.12891 0-0.25781 0.12891-0.25781 0-0.12891-0.12891-0.25781-0.38281-0.38281-0.51172 0.51172-0.51172 0-0.89453-0.12891-1.4062-0.12891-0.38281-0.38281-1.0234-0.12891-1.4062 0.12891-0.12891 0.25781-1.0234 0.38281-1.0234 0-0.12891 0.12891-0.38281 0-0.38281 0-0.12891-0.12891-0.25781-0.12891-0.25781 0-0.12891 0.12891-0.51172 0-0.64062 0-0.12891-0.25781-0.12891-0.38281-0.25781-0.25781-0.12891-0.25781-0.76953 0-0.76953s0.25781-0.12891 0.51172-0.25781c0.25781-0.12891 0.51172-0.25781 0.76953-0.38281 0.12891-0.12891 0-0.25781 0-0.38281 0 0.12891-0.38281 0.25781-0.51172 0.38281-0.12891 0-0.38281 0-0.51172 0.12891-0.12891 0.12891 0 0.25781-0.12891 0.12891s-0.25781-0.12891-0.38281-0.12891c0 0-0.25781 0.12891-0.25781 0s-0.12891 0.12891-0.12891 0.12891c-0.12891 0.25781-0.25781 0.51172-0.51172 0.38281-0.25781-0.12891-0.38281-1.1523-0.51172-0.76953-0.12891 0.38281-0.51172-0.12891-0.64063-0.25781-0.12891-0.25781-0.12891-0.25781-0.25781-0.38281-0.12891 0-0.38281-0.12891-0.12891 0.12891 0 0 0.12891 0 0.12891 0.12891 0.12891 0.12891 0 0.38281 0.12891 0.51172 0.12891 0.12891 0.51172 0.12891 0.64062 0.38281 0.12891 0.12891 0.38281 0.64062 0.38281 0.89453 0 0.25781 0.25781 1.6641 0.25781 1.6641-0.12891 0.12891-0.25781 0-0.25781-0.12891 0-0.12891 0.12891-0.64063-0.12891-0.38281-0.12891 0.25781-0.12891 0.38281-0.38281 0.51172-0.38281 0-0.38281 0.12891-0.38281-0.25781 0-0.38281-0.25781-0.12891-0.38281-0.25781-0.12891-0.25781-0.25781-0.12891-0.51172-0.38281-0.12891 0-0.25781-0.25781-0.25781-0.25781l0.12891 0.51172c0.12891 0.12891-0.25781-0.25781-0.25781-0.38281-0.12891-0.25781-0.38281-0.51172-0.51172-0.64062 0-0.12891-0.25781-0.38281-0.25781-0.38281 0.12891 0 0.25781 0.12891 0.38281 0.25781l0.25781 0.38281c0-0.25781-0.38281-0.76953-0.51172-1.0234-0.12891-0.25781-0.76953-1.0234-0.76953-0.89453v0.12891c0.12891 0.25781 0.51172 0.76953 0.51172 1.1523 0-0.12891-0.25781-0.25781-0.38281-0.51172-0.12891-0.38281-0.38281-0.64062-0.51172-1.0234 0-0.25781-0.38281-0.64062-0.51172-0.76953-0.12891-0.25781-0.25781-0.64062-0.38281-0.89453 0 0-0.12891-0.38281-0.12891-0.51172v-0.38281c0-0.12891-0.25781-0.51172-0.25781-0.64062v-0.12891c-0.12891-0.12891 0-0.25781-0.12891-0.38281 0-0.38281-0.51172-0.51172-0.64063-0.89453-0.12891-0.25781 0.12891-0.64062 0-0.89453-0.12891-0.12891-0.12891-0.51172-0.25781-0.64062-0.12891-0.12891 0-0.38281 0-0.51172-0.12891-0.51172-0.76953-0.38281-1.0234-0.64062-0.25781-0.25781-0.38281-0.25781-0.64062-0.38281l-0.25781-0.25781h0.38281c0.12891 0 0.51172 0.25781 0.51172 0 0-0.25781 0-0.38281-0.25781-0.51172 0 0-0.25781 0.25781-0.38281 0.25781-0.12891 0-0.12891-0.51172 0-0.25781 0.12891 0.25781 0.12891 0.12891 0 0 0-0.12891 0.38281-0.25781 0.51172-0.12891 0.51172 0.25781 0.89453 0.51172 1.5352 0.25781 0.12891 0 0.25781 0.12891 0.25781 0.12891s0-0.12891 0.12891-0.12891c0-0.12891 0.12891-0.12891 0.12891-0.25781 0.12891-0.12891 0.38281 0 0.64062-0.12891 0.12891-0.12891-0.12891 0-0.12891 0-0.12891 0-0.12891-0.12891-0.38281 0-0.25781 0.12891-0.38281 0.25781-0.64063 0.25781-0.51172 0-0.89453 0-1.4062-0.38281-0.12891-0.12891 0.25781 0 0.38281-0.12891 0 0.64062 0.25781-0.12891 0.51172-0.12891 0.12891 0 0-0.12891 0-0.12891 0-0.12891 0.12891-0.12891 0.25781-0.25781s-0.12891 0-0.12891 0c-0.25781 0-0.51172 0.51172-0.51172 0.12891 0-0.51172 0.25781-0.25781 0.38281-0.51172 0-0.12891 0.25781-0.12891 0.25781-0.12891-0.12891-0.25781-0.25781-0.38281 0-0.64063 0.12891-0.25781 0.25781-0.64062 0.51172-0.76953l0.64062-0.38281c0.12891-0.12891 0.12891-0.12891 0.12891-0.25781v-0.25781h0.25781c0.25781-0.12891 0.51172-0.12891 0.38281-0.51172 0-0.12891 0.12891-0.25781 0.12891-0.25781 0.12891-0.12891 0.25781 0 0.25781-0.25781s0.38281 0 0.25781-0.38281v-0.38281c0-0.12891-0.12891-0.12891-0.12891-0.25781v-0.38281c-0.12891-0.25781-0.25781-0.12891-0.38281 0 0.12891-0.12891 0.38281-0.64062 0.25781-0.64062 0-0.12891 0-0.25781-0.12891-0.12891-0.12891 0.12891-0.25781 0-0.25781 0.12891s0.12891 0.25781 0 0.51172c-0.12891 0.12891 0-0.12891-0.12891-0.12891 0 0 0 0.12891-0.12891 0.12891h-0.12891c-0.125 0.007812-0.125-0.12109-0.125-0.25v-0.25781c-0.12891 0-0.12891 0.12891-0.12891 0.12891-0.12891 0-0.25781 0.38281-0.12891 0.51172l0.12891 0.12891c0 0.12891-0.12891 0.25781-0.12891 0.25781 0 0.12891 0 0.25781 0.12891 0.38281 0.12891 0.25781 0.38281 0.64062-0.12891 0.51172-0.51172-0.12891-0.51172 0-0.76953-0.51172 0-0.12891-0.38281 0-0.12891-0.12891 0.12891-0.12891 0.12891 0 0.25781 0 0.12891 0 0.12891-0.38281 0-0.38281-0.12891-0.12891-0.12891 0 0-0.12891 0-0.25781 0-0.51172-0.12891-0.64062-0.12891-0.12891-0.12891-0.51172-0.38281-0.51172-0.25781 0-0.25781 0-0.38281-0.12891-0.12891-0.12891-0.38281-0.25781-0.51172-0.51172h-0.25781s-0.12891-0.12891-0.12891-0.25781c-0.12891-0.12891-0.25781 0.12891-0.38281 0.25781v-0.25781-0.25781c0-0.12891-0.25781 0-0.38281-0.12891-0.12891-0.12891 0 0.12891 0 0.12891 0.12891 0.12891 0.12891 0.25781 0.25781 0.51172l-0.25781 0.25781c-0.12891 0.12891 0 0.25781-0.12891 0.25781-0.12891 0.25781-0.51172 0-0.38281 0.38281 0 0.12891 0.12891 0.38281 0.25781 0.38281 0.12891 0.12891 0.25781-0.12891 0.38281 0 0 0.12891 0.12891 0.25781 0.25781 0.25781 0.25781 0.12891 0.38281 0.51172 0.64062 0.51172 0 0 0 0.12891 0.12891 0.12891l0.12891 0.12891-0.13281 0.25781v0.12891 0.12891l0.25781 0.12891c0 0.12891-0.25781 0.25781-0.25781 0.38281 0 0.12891 0 0.12891-0.12891 0.12891-0.125-0.003906-0.125 0.125-0.125 0.125v0.38281c0 0.12891 0.12891 0.25781 0 0.25781 0 0 0.12891 0 0.12891 0.12891 0 0.12891 0 0.25781-0.12891 0.25781v0.12891 0.12891c0 0.12891-0.25781 0.12891-0.38281 0.12891h-0.12891s-0.12891 0.25781-0.12891 0.12891 0-0.12891-0.12891-0.25781h-0.25781s-0.12891 0.12891-0.25781 0.12891v-0.12891s-0.12891-0.12891 0-0.12891c0.12891 0 0.38281 0 0.38281-0.12891v-0.25781h-0.25781c-0.12891 0-0.12891 0-0.25781-0.12891s-0.12891-0.12891-0.12891 0c0 0 0 0.12891-0.12891 0.12891 0 0.12891 0 0.12891 0.12891 0.25781s0.12891 0.25781 0 0.38281c0 0-0.12891 0.12891-0.12891 0.25781v-0.51172c0-0.12891-0.25781-0.51172-0.38281-0.64062-0.12891-0.25781-0.25781-0.51172-0.38281-0.76953-0.12891-0.25781-0.38281-0.38281-0.64062-0.64062-0.12891-0.12891-0.12891-0.25781-0.25781-0.38281 0-0.25781-0.12891-0.38281-0.12891-0.64063 0-0.25781 0-0.38281 0.12891-0.64062 0-0.12891 0.12891-0.38281 0.12891-0.51172 0.25781-0.38281 0-0.89453 0.12891-1.4062v-0.38281c0-0.12891-0.12891-0.25781-0.12891-0.38281v-0.25781 0.25781 0.25781c0 0.12891 0.25781 0.12891 0.25781 0.25781 0 0.25781-0.12891 0.64062-0.12891 1.0234 0 0.12891 0.12891 0.12891 0.12891 0.25781 0 0.12891-0.12891 0.25781-0.12891 0.38281-0.12891 0.12891-0.12891 0.38281-0.25781 0.51172 0 0.12891-0.12891 0.25781-0.12891 0.38281 0.25781-0.12891 0.38281-0.38281 0.51172-0.64062 0.12891-0.25781 0.38281-0.89453 0.25781-1.1523 0-0.12891 0.12891-0.38281 0.12891-0.38281v-0.25781h0.12891v-0.12891l0.007812-0.13281v-0.89453c0-0.25781-0.38281-0.76953-0.12891-0.89453v-0.25781c0.12891 0 0.25781-0.25781 0.25781-0.38281 0-0.12891 0.12891-0.12891 0.25781-0.25781s0-0.25781 0-0.38281c0.12891 0 0.12891 0 0.12891-0.12891l0.12891-0.51172c0.12891 0 0.25781-0.38281 0.25781-0.51172 0-0.25781 0.12891-0.38281 0.12891-0.64062v-0.38281c0.12891-0.12891 0-0.38281 0.12891-0.64062 0.25781 0 0.25781-0.25781 0.25781-0.38281 0.38281-0.12891 0.25781-0.38281 0.38281-0.64062 0-0.12891-0.12891-0.12891-0.25781-0.12891 0-0.12891 0.25781-0.12891 0.25781-0.25781v-0.25781c0-0.12891 0-0.38281 0.12891-0.38281 0.12891-0.12891 0.12891-0.25781 0.12891-0.38281v-0.51172c0-0.12891 0.12891-0.12891 0-0.25781 0-0.12891-0.12891-0.25781-0.12891-0.38281v-0.51172c-0.12891-0.25781-0.12891-0.25781 0-0.51172 0.12891-0.12891 0.25781-0.51172 0.38281-0.64062-0.12891 0-0.25781 0.25781-0.38281 0 0-0.12891-0.12891-0.38281-0.25781-0.51172 0.51172-0.25781 0-0.38281-0.25781-0.38281-0.51172-0.12891 0-0.38281 0-0.64062 0-0.12891-0.12891-0.12891-0.12891-0.38281-0.12891 0-0.38281 0-0.38281-0.25781 0-0.12891 0.12891-0.38281 0.12891-0.51172 0-0.12891 0.12891 0 0.25781 0h0.64062c0.25781 0 0-0.38281 0-0.51172-0.12891 0-0.25781-0.25781-0.38281-0.25781-0.12891-0.12891 0.12891-0.25781-0.12891-0.25781-0.12891 0-0.51172-0.76953-0.64062-0.89453v-0.25781h-0.25781c0-0.12891 0.12891-0.12891 0.12891-0.25781 0.25781-0.38281 0-0.25781 0-0.51172 0-0.25781 0.12891-0.38281-0.25781-0.38281-0.12891 0-0.12891-0.12891-0.25781-0.12891-0.12891-0.12891-0.38281 0-0.38281 0 0-0.12891 0.12891-0.12891 0-0.25781 0.12891-0.25781 0.12891-0.25781 0.38281-0.25781 0.12891-0.25781-0.25781-0.25781-0.25781-0.51172v-0.64062c0 0.12891-0.38281 0.25781-0.51172 0.25781-0.25781-0.12891-0.38281 0-0.64062 0-0.12891 0-0.25781-0.12891-0.38281-0.12891h-0.64062c-0.25781-0.12891-0.38281-0.12891-0.64062 0-0.12891 0-0.25781 0.12891-0.38281 0.12891-0.12891 0-0.12891 0-0.12891-0.12891-0.12891-0.12891-0.51172-0.12891-0.64062-0.25781 0-0.12891 0-0.25781-0.12891-0.25781v-0.12891l0.12891-0.12891c0-0.12891-0.12891-0.12891 0-0.25781v-0.25781c0-0.12891 0-0.12891-0.12891-0.25781l-0.51172-0.10938c-0.25781-0.12891-0.38281-0.25781-0.64062-0.38281-0.12891 0-0.12891-0.12891-0.12891-0.25781 0.12891-0.12891 0.25781-0.25781 0-0.25781-0.25781-0.12891-0.12891-0.25781-0.25781-0.38281 0-0.12891-0.25781-0.12891-0.25781-0.25781-0.12891-0.12891-0.12891-0.25781-0.12891-0.38281 0-0.25781-0.12891-0.51172-0.25781-0.64062-0.38281-0.25781-0.64062 0-1.0234 0 0 0 0-0.12891-0.12891-0.12891 0-0.12891-0.12891-0.25781-0.12891-0.38281-0.12891-0.12891-0.12891-0.12891-0.25781-0.12891-0.25781 0-0.25781-0.38281-0.64062-0.38281-0.25781 0-0.12891-0.12891-0.25781-0.25781h-0.25781c0-0.38281 0-0.76953-0.12891-1.1523l0.12891-0.51172v-0.64062-0.38281h-0.25781c-0.12891-0.12891-0.25781 0-0.38281-0.12891-0.12891 0-0.12891-0.12891-0.25781-0.12891-0.12891 0-0.25781-0.12891-0.25781-0.12891-0.12891-0.12891-0.12891-0.25781-0.38281-0.25781-0.25781-0.12891-0.51172-0.12891-0.64062-0.38281-0.12891-0.12891-0.12891-0.51172-0.38281-0.38281-0.25781 0.12891 0-0.12891 0-0.25781l-0.12891-0.12891c0.12891-0.12891 0.12891-0.12891 0.12891-0.25781-0.12891-0.12891 0-0.25781-0.12891-0.38281 0-0.25781-0.38281-0.25781-0.51172-0.51172 0-0.38281-0.51172-0.76953-0.76953-1.0234 0 0 0-0.12891-0.12891-0.12891-0.12891-0.12891-0.12891-0.12891-0.25781-0.12891-0.12891-0.12891-0.25781-0.12891-0.38281-0.25781-0.25781-0.12891-0.51172-0.38281-0.76953-0.51172-0.12891 0-0.12891-0.12891-0.25781-0.12891-0.25781 0-0.51172-0.12891-0.76953-0.25781-0.12891-0.12891-0.51172-0.38281-0.76953-0.51172-0.12891 0-0.25781-0.12891-0.38281-0.12891-0.12891-0.12891-0.25781-0.12891-0.38281-0.25781-0.12891-0.12891-0.38281-0.38281-0.64062-0.38281-0.38281-0.12891-0.38281-0.51172-0.76953-0.64062-0.51172-0.12891-0.89453 0.12891-1.2812 0.12891h-0.25781c-0.12891 0-0.25781 0.25781-0.51172 0.25781-0.12891 0-0.38281 0.12891-0.38281 0s0-0.12891 0.12891-0.25781c0-0.12891-0.12891 0-0.25781 0-0.12891-0.12891-0.12891-0.38281-0.12891-0.51172v0.12891 0.12891c0 0.12891 0 0.25781 0.12891 0.38281h-0.38281c-0.12891 0-0.25781 0.12891-0.25781 0 0-0.25781 0-0.25781-0.25781-0.12891h-0.12891v0.38281c0 0.12891 0 0.38281-0.12891 0.38281-0.25781 0-0.12891 0-0.25781-0.12891-0.12891-0.12891-0.25781-0.12891-0.38281-0.12891-0.25781 0-0.12891 0.12891-0.38281 0.12891-0.12891 0-0.12891-0.12891-0.12891 0.12891v0.51172s0 0.25781-0.12891 0.25781-0.12891-0.25781-0.12891-0.38281v0.51172c0.12891 0 0.12891-0.12891 0.25781 0s0 0.38281 0.12891 0.38281c0.12891 0.12891 0.12891-0.12891 0.25781-0.12891v0.25781c-0.12891 0-0.51172 0-0.64062-0.12891-0.25781-0.12891-0.64062 0-0.76953-0.12891-0.12891-0.12891 0 0.25781-0.12891 0.38281 0 0-0.12891 0 0 0.12891 0 0.12891 0.12891 0.12891 0.12891 0.12891 0.12891 0 0.25781-0.12891 0.38281 0 0.12891 0 0.12891 0.12891 0.25781 0 0.12891 0 0.25781 0 0.25781 0.12891 0.12891 0.12891 0.38281 0 0.51172 0.12891 0.12891 0.12891 0.12891 0.51172 0 0.64062-0.12891 0.38281-0.76953 0.25781-1.0234 0.12891-0.12891 0-0.38281-0.12891-0.51172-0.25781 0.12891 0 0.25781 0.12891 0.38281 0.12891 0.12891 0 0.25781 0.12891 0.38281 0.12891 0.12891 0 0.64062 0 0.51172-0.12891 0-0.12891-0.25781-0.12891-0.38281-0.12891l-0.38281-0.12891c-0.12891 0-0.25781-0.12891-0.38281-0.12891-0.38281 0-0.51172 0.12891-0.76953 0.25781 0 0-0.12891 0-0.12891-0.12891h-0.25781c-0.12891 0-0.38281 0.12891-0.51172 0.25781-0.12891 0-0.25781 0.12891-0.38281 0.25781-0.25781 0.12891-0.51172 0.25781-0.64063 0.38281-0.12891 0.12891-0.38281 0.25781-0.51172 0.38281-0.12891 0.12891 0 0.12891-0.12891 0.12891h-0.25781s-0.12891 0.12891-0.25781 0.12891h-0.12891-0.12891l-0.12891 0.12891-0.25781 0.12891c-0.12891 0.12891-0.38281 0.25781-0.51172 0.38281-0.12891 0-0.25781 0.12891-0.38281 0.25781l-0.51172 0.25781c-0.25781 0.12891-0.64062 0.25781-0.89453 0.51172l-0.25781 0.25781c0-0.12891-0.25781-0.12891-0.12891-0.38281 0.12891-0.12891 0.12891-0.38281 0.25781-0.51172s0.12891-0.25781 0.12891-0.38281c0.12891-0.12891 0.25781 0 0.25781-0.25781-0.12891 0-0.12891 0.12891-0.25781 0.12891s-0.12891-0.12891-0.25781-0.12891c0 0.12891 0.25781 0.25781 0.12891 0.25781s-0.25781 0-0.51172 0.12891c-0.12891 0-0.25781-0.25781-0.38281-0.12891 0 0.12891 0.25781 0.12891 0.25781 0.25781l-0.09375 0.25781c-0.12891-0.12891-0.12891 0-0.12891 0.12891h-0.12891s0 0.12891-0.12891 0.12891h-0.12891c-0.12891 0.12891-0.12891 0.12891-0.25781 0.12891v0.25781c-0.25781 0.25781-0.51172 0.25781-0.89453 0.25781-0.12891 0-0.12891-0.12891-0.12891-0.12891-0.12891 0-0.25781 0-0.38281-0.12891h-0.89453l-1.0234 0.25781c-0.12891 0-0.89453 0.25781-0.89453 0.25781 0.25781 0 0.51172 0.12891 0.76953 0.12891h0.89453c0.12891 0 0.38281-0.12891 0.51172 0 0.12891 0 0.38281 0.25781 0.51172 0.25781 0 0.12891-0.12891 0.25781-0.25781 0.38281 0 0.12891-0.12891 0.25781-0.12891 0.38281h-0.64062c-0.12891-0.12891-0.25781-0.38281-0.38281-0.38281-0.38281-0.12891-0.64062-0.25781-1.0234-0.38281-0.12891 0-0.38281-0.12891-0.51172 0h-0.76953c-0.12891 0-0.38281 0.25781-0.51172 0.25781-0.25781 0-0.76953-1.793-0.76953-2.0469-0.12891-0.51172-0.38281-1.1523 0-1.5352 0 0 0.25781-0.25781 0.38281-0.25781 0 0.12891-0.12891 0.25781-0.25781 0.38281 0 0.12891-0.12891 0.38281-0.12891 0.51172 0 0.12891 0 0.25781-0.12891 0.38281 0 0.12891 0.12891 0.89453 0.25781 0.89453 0 0.25781 0.12891 0.51172 0.25781 0.64062 0.12891 0.25781 0.12891 0.51172 0.25781 0.76953l0.26172-0.14062c0.12891 0 0.25781-0.12891 0.38281-0.12891 0.25781 0 0.12891-0.12891 0.12891-0.25781 0.12891-0.38281 0-0.89453 0-1.4062v-0.38281c-0.12891-0.12891-0.12891-0.25781-0.12891-0.38281 0-0.25781-0.12891-0.12891-0.25781-0.25781-0.12891 0-0.12891-0.12891-0.12891-0.25781 0-0.25781-0.12891-0.38281-0.25781-0.51172-0.12891-0.25781-0.38281-0.38281-0.51172-0.64062-0.12891-0.12891-0.64062-0.38281-0.76953-0.38281-0.38281-0.12891-0.51172-0.12891-0.89453-0.25781l-0.38281-0.38281c0.12891 0 0.25781 0.12891 0.38281 0.12891l0.25781 0.12891c0-0.12891-0.25781-0.25781-0.38281-0.25781l-0.89453-0.89453c0 0.12891 0.38281 0.51172 0.51172 0.64062 0.25781 0.25781 0 0.12891-0.12891 0l-0.38281-0.38281c-0.25781-0.38281-0.76953-0.64062-1.1523-0.76953-0.25781-0.12891-1.1523-0.51172-1.1523-0.76953 0 0 0.25781-0.12891 0.25781 0s0 0.25781 0.12891 0.25781l0.89453 0.38281c0.12891 0.12891 0.38281 0.25781 0.64062 0.25781 0-0.12891-0.51172-0.38281-0.64062-0.38281-0.25781-0.12891-0.51172-0.38281-0.64062-0.64062 0 0 0.25781-0.25781 0.25781-0.38281l0.12891 0.25781c0.12891 0.12891 0.25781 0.12891 0.38281 0.12891 0.25781 0 0.25781-0.12891 0.25781 0.25781 0 0.12891 0.12891 0.12891 0.12891 0.12891 0.12891 0.25781 0.38281 0.12891 0.51172 0 0.12891 0 0.12891 0.12891 0.25781 0.12891s0.25781 0 0.38281 0.12891c0.12891 0 0.12891 0.25781 0 0.38281 0 0.12891 0.25781 0.12891 0.38281 0.12891 0.12891 0.12891 0.12891 0.25781 0.25781 0.25781 0.12891 0.12891 0.25781 0.12891 0.38281 0.25781h0.51172c0-0.12891-0.12891-0.12891-0.12891-0.25781 0 0 0.12891-0.12891 0.12891-0.25781l0.12891 0.12891c0.12891 0.12891 0.12891 0.12891 0.25781 0 0.25781 0 0.12891-0.12891 0.12891-0.38281h-0.25781c-0.12891-0.12891-0.25781-0.25781-0.38281-0.12891-0.12891 0.12891-0.25781 0.51172-0.38281 0.51172-0.12891 0-0.25781 0-0.25781-0.12891-0.12891-0.12891 0-0.25781-0.12891-0.38281v-0.51172c-0.12891-0.12891-0.51172 0-0.51172-0.12891v-0.51172c-0.12891 0.12891-0.38281 0-0.51172 0-0.25781 0-0.25781 0.25781-0.51172 0.12891-0.13281-0.007812-0.13281 0.11719-0.26172 0.11719v-0.25781l-0.12891-0.12891c-0.12891-0.25781-0.38281-0.12891-0.51172-0.12891-0.12891 0-0.25781-0.12891-0.25781-0.25781-0.12891-0.12891-0.38281-0.12891-0.51172-0.25781-0.12891 0 0-0.12891-0.12891-0.25781-0.12891-0.12891-0.25781 0-0.38281 0-0.12891 0-0.12891-0.12891-0.12891-0.25781 0.12891 0 0.25781 0 0.38281-0.25781l0.25781-0.25781c0.25781-1.5195 0.25781-1.6484 0.25781-1.7773 0 0 0.12891 0 0.12891-0.12891 0-0.25781 1.0234-0.12891 1.0234-0.25781 0-0.12891 0.12891-0.12891 0.25781-0.12891s0.12891-0.64062 0.38281-0.64062c-0.12891-0.12891-0.25781-0.12891-0.12891-0.25781 0-0.25781 0.12891-0.25781-0.12891-0.12891-0.12891 0.12891-0.12891 1.0234-0.38281 0.89453-0.12891 0-0.12891-0.12891-0.25781 0h-0.25781c0-0.25781 0-0.12891-0.25781 0-0.12891 0.12891-0.38281 0.12891-0.51172 0.12891-0.12891 0.12891-0.25781 0.51172-0.38281 0.51172-0.12891 0 0-0.51172-0.12891-0.51172-0.25781 0 0.12891-0.25781-0.12891-0.38281-0.12891 0-0.25781-0.12891-0.38281-0.25781v-0.25781c0 0.12891 0 0.25781-0.12891 0.25781 0 0.12891-0.25781 0-0.25781 0h-0.12891c0-0.12891-0.12891 0-0.25781 0h-0.51172c-0.25781 0-0.12891 0.12891-0.12891 0.25781 0 0.25781-0.12891 0.51172 0.12891 0.64063 0 0 0.25781 0.12891 0.25781 0 0-0.12891 0.12891-0.38281 0.12891-0.38281 0.12891-0.12891 0.38281 0.12891 0.51172 0.12891s0.12891 0 0.12891 0.12891c0 0.25781-0.25781 0.12891 0 0.25781 0 0 0.12891 0.12891 0.25781 0.12891h0.12891c0 0.12891 0 0.25781-0.12891 0.38281v0.12891c0 0.12891-0.12891 0.12891 0 0.25781 0 0.12891 0.25781 0.12891 0.38281 0.12891h0.12891s0.12891 0.12891 0.12891 0.25781-0.25781 0.38281-0.38281 0.12891c0 0 0-0.12891-0.12891-0.12891h-0.12891c0 0.12891 0.25781 0.25781 0.25781 0.25781s0.12891 0 0 0c0 0-0.12891 0-0.12891 0.12891 0 0-0.12891-0.12891-0.25781-0.25781v0.25781c-0.12891 0-0.12891-0.12891-0.25781-0.12891-0.64062-0.64062-1.5352-1.0234-2.4336-1.5352-0.12891-0.12891-0.51172-0.25781-0.64062-0.25781l-1.6641-0.76953c-0.51172-0.25781-0.89453-0.38281-1.4062-0.51172-0.12891-0.12891-0.38281-0.12891-0.51172-0.25781l-0.51172-0.12891-1.1523-0.25781h-0.64062c-0.12891-0.12891-0.51172-0.12891-0.64063-0.12891h-0.76953-0.25781c0-0.12891 0-0.25781-0.12891-0.38281 0 0 0-0.12891 0.12891-0.12891h0.12891c0.12891 0 0.12891 0 0.25781-0.12891 0 0 0.12891 0.12891 0.25781 0.12891h0.25781 0.64063c0.12891 0 1.2812 0.51172 1.2812 0.25781 0.12891-0.12891 0-0.51172 0.25781-0.64062 0.12891-0.12891 0.12891 0.25781 0.12891 0.38281l0.25781 0.12891c0.12891 0 0.25781 0 0.38281 0.12891 0.12891 0 0.12891 0.12891 0.25781 0.12891s0-0.25781-0.12891-0.25781c0 0-0.25781 0-0.25781-0.12891s0.12891-0.25781 0.25781-0.25781c0.25781 0.25781 0.51172 0.38281 0.76953 0.51172 0.12891 0.12891 0.25781 0.12891 0.38281 0.12891 0.12891 0.12891 0.25781 0.12891 0.38281 0.25781h0.51172l0.12891-0.25781c-0.12891 0-0.25781-0.12891-0.25781-0.25781-0.12891-0.12891 0-0.25781-0.12891-0.38281h-0.25781s-0.12891 0-0.12891-0.12891v-0.12891c0-0.25781 0.12891-0.25781 0.12891-0.38281 0 0-0.12891 0.12891-0.25781 0.12891-0.12891 0.12891-0.12891 0-0.25781 0.12891-0.25781 0-0.25781-0.12891-0.38281-0.25781 0-0.12891-0.12891-0.12891 0-0.25781l0.12891-0.12891c-0.12891 0-0.25781 0.25781-0.38281 0.25781-0.25781 0.12891-0.25781-0.12891-0.51172-0.12891-0.12891 0-0.38281 0.12891-0.51172 0.25781-0.25781 0.12891-0.12891 0.12891-0.38281 0-0.25781-0.12891-0.38281 0.12891-0.51172 0.25781-0.12891 0.12891-0.38281 0-0.51172 0.12891-0.12891 0-0.12891 0.12891-0.25781 0.12891-0.12891-0.12891-0.12891 0-0.38281 0 0-0.25781-0.12891-0.25781-0.25781-0.51172l-0.12891-0.38281c0.12891 0 0.25781 0 0.38281-0.12891h-0.38281c-0.12891 0-0.12891 0.25781-0.12891 0.38281-0.12891 0.12891-0.12891 0-0.12891 0s-0.12891-0.25781-0.25781-0.25781c0 0.12891 0.12891 0.38281 0.12891 0.51172 0 0.12891-0.25781 0.25781-0.38281 0.38281-0.12891 0.12891-0.25781 0-0.38281 0-0.12891 0-0.38281 0.25781-0.38281 0.38281 0 0.12891-0.12891 0-0.12891 0h-0.38281v-0.38281s-0.12891 0.12891-0.12891 0h-0.12891c0 0.12891 0.12891 0.12891 0 0.25781 0 0.12891 0.12891 0.12891 0.12891 0.12891 0.12891 0.12891 0 0.25781-0.12891 0.38281h0.38281c0.12891 0 0.25781 0 0.38281 0.12891 0.25781 0 0.38281 0 0.51172 0.25781 0 0.12891-0.25781 0-0.38281 0-0.25781-0.12891-0.51172-0.12891-0.76953-0.12891h-1.4062c-0.38281 0-0.89453 0-1.2812 0.12891h-0.12891-0.12891-0.25781c-0.25781 0-0.64062 0.12891-1.0234 0.12891-0.38281 0-0.76953 0.12891-1.0234 0.12891-0.12891 0-0.38281 0.12891-0.64062 0.12891h-0.12891c-0.38281 0.12891-0.76953 0.12891-1.0234 0.25781-0.38281 0-0.64062 0.12891-1.0234 0.12891-0.11719 0.125-0.37109 0.125-0.62891 0.125-0.12891 0-0.25781 0.12891-0.38281 0-0.12891 0-0.38281 0-0.51172 0.12891h-0.51172c-0.25781 0-0.51172 0-0.76953-0.12891l-0.12891-0.12891c0.38281 0 0.76953 0.25781 1.2812 0.12891 0.25781-0.12891 0.64062 0 0.89453-0.12891 0.12891-0.12891 0.12891-0.12891 0.25781-0.12891h0.38281l0.76953-0.25781c0.12891 0 0.38281 0 0.51172-0.12891 0.51172 0 1.0234-0.12891 1.4062-0.25781 0.38281-0.12891 0.76953-0.12891 1.1523-0.12891h0.12891 0.12891 0.12891l1.2812-0.12891c0.51172 0 0.89453 0 1.4062-0.12891h-0.51172-0.38281c-0.12891 0-0.25781 0.12891-0.38281 0h-0.12891-0.51172-0.25781c-0.51172 0.12891-1.0234 0.12891-1.6641 0.12891-0.51172 0-1.0234 0-1.5352 0.25781-0.25781 0-0.64062 0-0.89453 0.12891l-1.0234 0.38281c-0.12891 0-0.38281 0.12891-0.51172 0.25781 0-0.12891-0.25781-0.12891-0.25781-0.25781 0.25781 0 0.38281 0 0.51172-0.12891 0.12891-0.12891 0.25781 0 0.38281 0 0.38281-0.12891 0.64062-0.64062 1.1523-0.51172 0.25781 0 0.64062 0.12891 0.76953 0 0.25781-0.12891 0.51172-0.12891 0.76953-0.38281 0 0 0.51172-0.51172 0.51172-0.38281 0.12891 0 0.25781 0.12891 0.25781 0.25781 0.12891 0 0.51172 0.12891 0.51172 0-0.25781 0-0.51172 0-0.64062-0.25781 0-0.12891-0.12891-0.12891-0.25781-0.12891s-0.25781-0.12891-0.38281-0.12891c-0.12891 0-0.25781-0.12891-0.25781-0.25781-0.12891 0-0.12891-0.12891-0.25781-0.12891l-0.38281-0.25781s0.38281-0.12891 0.38281-0.25781c-0.12891-0.25781 0.25781-0.12891 0.12891-0.12891-0.12891-0.12891-0.12891-0.12891-0.12891-0.25781 0-0.12891 0-0.25781 0.12891-0.38281 0 0 0.12891-0.12891 0.12891-0.25781 0 0 0-0.25781-0.12891-0.25781-0.12891 0 0 0 0 0.12891 0 0.12891-0.12891 0-0.25781 0 0 0-0.12891-0.25781-0.25781-0.25781 0 0.12891 0 0.25781 0.12891 0.38281 0.12891 0.12891 0.12891 0.12891 0.12891 0.25781s0 0.12891-0.12891 0.25781-0.12891 0-0.25781 0.12891c0 0.64063-0.51172 1.0234-0.51172 1.5352h-0.25781c-0.12891 0-0.12891 0.12891-0.25781 0.12891-0.25781 0 0-0.38281 0-0.38281 0.12891-0.25781 0.12891-0.89453-0.25781-1.1523l-0.25-0.11328c0-0.12891 0.12891-0.25781 0-0.25781-0.12891-0.12891-0.12891-0.25781-0.12891-0.25781-0.12891-0.25781-0.12891-0.25781-0.38281-0.25781-0.25781 0-0.25781 0-0.25781 0.25781 0 0 0.12891 0.25781 0.12891 0.38281-0.64062 0 0 0.38281 0 0.51172l0.25781 0.51172c-0.12891 0 0 0.25781-0.12891 0.38281-0.12891 0.12891-0.25781 0.25781-0.25781 0.51172 0 0.38281-0.51172 0.25781-0.51172 0.51172 0 0-0.38281 0.12891-0.51172 0.12891-0.38281 0.38281-0.12891 0.38281-0.25781 0.89453l-0.125 0.007812h-0.125-0.25781-0.12891l-0.25781 0.25781h-0.25781l-0.38281 0.12891h-0.25781c-0.12891 0-0.12891 0.12891-0.25781 0.25781l-0.38281 0.12891c-0.12891 0-0.12891 0-0.25781-0.12891h-0.38281-0.25781l-0.12109-0.007813 0.25781-0.25781 0.12891 0.13281h0.25781c0.12891 0 0.25781 0 0.25781-0.25781 0.125-0.25391 0.25-0.12891 0.37891-0.25391 0.12891 0 0-0.25781 0-0.38281l-0.12891 0.12891s-0.12891-0.12891-0.12891-0.25781c0.38281-0.12891 0.25781-0.12891 0.25781-0.51172v-0.12891c0-0.12891 0-0.12891 0.12891-0.12891s0.25781 0.12891 0.38281 0c0.12891-0.25781 0-0.25781 0.25781-0.25781s0.64062-0.12891 0.38281-0.38281l-0.51172-0.64063c-0.12891-0.12891-0.38281 0-0.51172 0h-0.25781l-0.25781-0.25781v-0.12891-0.12891-0.12891s-0.12891-0.12891-0.12891-0.25781v-0.38281c0-0.12891 0.12891-0.38281 0.12891-0.38281 0.12891-0.12891 0.25781-0.38281 0.25781-0.64062 0 0 0.12891-0.51172 0.25781-0.51172v-0.51172-0.12891c0-0.12891-0.25781-0.38281-0.25781-0.38281l-0.25781-0.25781c-0.25781 0-0.38281-0.25781-0.51172-0.25781 0 0-0.25781 0-0.25781-0.12891-0.12891-0.12891-0.25781-0.25781-0.38281-0.38281-0.37891-0.24609-0.63672-0.50391-0.63672-0.88672-0.12891 0-0.38281-0.38281-0.51172-0.51172-0.12891-0.12891-0.51172-0.64062-0.64062-0.64062v-0.12891c0-0.25781 0.25781-0.64062 0.25781-0.89453 0.12891-0.38281 0.25781-0.64062 0.25781-1.0234v-0.51172l39.297 0.12891c0 0.25781-0.25781 0.38281 0.12891 0.38281 0.12891 0 0.25781 0 0.25781 0.12891 0 0.12891-0.12891 0.38281 0 0.51172 0 0.12891 0.12891 0.12891 0.25781 0.12891l0.12891 0.25781c0 0.12891 0.25781 0.12891 0.25781 0.25781 0.12891 0.25781 0.12891 0.64062 0.12891 1.0234 0 0.12891 0 0.38281 0.12891 0.51172 0 0.12891 0.12891 0.25781 0.12891 0.51172v0.25781c0.12891 0.12891 0.12891 0.12891 0.12891 0.25781l0.12891 0.12891s0.12891 0 0.12891 0.12891c0.12891 0 0.25781 0.25781 0.25781 0.38281l0.12891 0.25781h1.793l2.9453 0.25781 2.1758 0.12891 6.2734 0.25781 8.0625 0.51172 2.6875 0.12891 3.457 0.25781 8.4492 0.64062 3.7109 0.25781 0.12891 0.12891c0.25781 0 0 0.38281 0 0.38281-0.25781 0.38281 0.38281 0.76953 0.51172 1.0234 0.25781 0.51172-0.38281 1.6641 0.38281 2.0469 0.25781 0.12891 0.38281 0.12891 0.64062 0 0.38281-0.12891 0.64062 0.25781 1.0234 0.12891 0.38281 0 0.38281-0.25781 0.38281-0.64062 0-0.25781 0-0.51172 0.12891-0.76953 0.12891-0.38281 0.12891-0.89453 0.25781-1.2812 0.12891-0.25781 0.12891-0.76953 0.12891-1.1523 0-0.64062-0.64062-1.0234-0.64062-1.6641 0-0.25781 0.25781-0.51172 0.12891-0.89453 0-0.25781-0.25781-0.64062 0.12891-0.64062l0.25781-0.12891c0.12891-0.12891 0-0.38281 0-0.51172 0-0.25781 0.38281 0 0.38281 0.12891 0.12891 0 0.25781 0.25781 0.38281-0.12891 0-0.38281 0.12891-0.76953 0.64062-0.51172 0.23047 0.10938 0.48828-0.14453 0.48828-0.14453 0.38281 0.89453 1.5352 0.25781 1.793 1.1523h0.12891c0.12891-0.64062 0.64062 0.12891 0.76953 0.25781 0.12891 0 0.38281 0.12891 0.51172 0 0.12891 0 0.25781-0.12891 0.38281-0.12891 0 0.12891 0 0.38281 0.12891 0.38281h0.38281c0.12891 0 0 0.38281 0.38281 0.25781 0.12891 0 0.38281-0.12891 0.38281 0 0-0.12891 0.25391-0.003906 0.25391-0.003906zm-17.664 52.609-0.12891-0.25781c0.003906 0 0.003906 0.12891 0.12891 0.25781-0.12891 0.12891-0.38281 0-0.38281 0.12891v0.12891 0.12891s0-0.12891 0.12891-0.12891l0.12891-0.12891v0.12891 0.12891c0-0.003907 0-0.25781 0.125-0.38672zm-0.25391 0.64062s-0.12891-0.12891 0 0c-0.12891 0-0.12891 0 0 0-0.12891 0.12891-0.12891 0.25781-0.12891 0.25781v0.25781l0.12891-0.003907c0.12891 0 0.25781-0.12891 0.25781-0.12891 0.12891 0 0-0.12891 0-0.12891v-0.25781 0.12891c0 0.12891 0 0.12891-0.12891 0.25781l-0.12891 0.12891zm0.51172 3.3281c-0.12891-0.12891-0.12891-0.25781-0.12891-0.51172 0-0.12891-0.12891-0.51172-0.25781-0.51172 0 0-0.12891-0.25781-0.25781-0.25781-0.12891 0-0.12891-0.25781-0.12891-0.25781s0.12891 0 0.25781 0.12891c0.12891 0 0.25781 0.12891 0.25781 0.12891 0.12891 0 0 0.25781 0.12891 0.38281 0 0.12891 0.12891 0.12891 0.12891 0.25781s0 0.25781 0.12891 0.51172l-0.12891 0.12891c0-0.12891 0.12891 0 0 0 0.12891 0 0.12891 0 0 0 0.12891 0 0.12891 0 0 0 0.12891 0 0.12891 0 0 0zm-0.89453-2.1758s-0.12891-0.12891-0.12891-0.25781v-0.12891-0.12891h0.12891v0.25781 0.25781zm2.6875 4.0938c-0.12891-0.12891-0.51172-0.38281-0.51172-0.64063v-0.12891c0-0.12891-0.12891 0-0.12891 0l-0.12891-0.12891c-0.12891-0.12891-0.25781-0.25781-0.25781-0.38281 0-0.12891 0-0.12891-0.12891-0.12891l-0.25391-0.25391h-0.25781s0.38281 0.38281 0.38281 0.51172c0.25781 0.25781 0.38281 0.51172 0.51172 0.76953 0.12891 0.12891 0.12891 0.25781 0.25781 0.38281l0.38281 0.38281s0.12891 0 0.12891 0.12891c0 0 0 0.12891 0.12891 0.12891l0.25781 0.25781v-0.25781c0-0.12891-0.12891-0.12891-0.12891-0.25781-0.25391-0.25391-0.12891-0.25391-0.25391-0.38281zm1.0234 2.3047-0.12891-0.38281c0-0.12891-0.12891-0.25781-0.25781-0.38281-0.125-0.12891-0.38281-0.38672-0.51172-0.51562-0.12891-0.12891 0.12891-0.25781 0.25781-0.25781v-0.25781l0.12891 0.12891c0 0.12891-0.12891 0.25781-0.12891 0.25781l0.12891 0.25781 0.12891 0.12891c0.25391 0.38281 0.25391 0.64062 0.38281 1.0234zm3.7109 7.4258c0-0.12891-0.12891-0.25781-0.12891-0.38281l-0.12891-0.25781c0.12891-0.12891 0.25781 0.38281 0.25781 0.64062 0-0.25781 0.12891-0.12891 0 0 0.12891 0.12891 0.25781 0 0.25781 0 0 0.12891-0.12891 0.25781-0.12891 0.38281 0 0.12891 0 0.51172-0.12891 0.51172-0.12891 0 0-0.25781 0-0.38281v-0.51172zm0.38281 2.0469c0-0.12891-0.12891-0.25781-0.12891-0.25781-0.12891-0.12891-0.25781-0.25781-0.12891-0.38281 0.12891-0.12891 0-0.38281 0.12891-0.38281v0.25781 0.12891 0.25781 0.25781c0 0.12891 0.12891 0.25781 0.12891 0.38281 0.12891 0.25781-0.12891 0-0.12891 0zm0.89844 2.3047c0-0.12891 0-0.25781-0.12891-0.25781v-0.25781-0.12891s0-0.12891-0.12891-0.25781c0 0 0-0.25781-0.12891-0.25781 0 0 0-0.12891-0.12891-0.25781v-0.25781l-0.125-0.11719c-0.12891 0 0 0.25781 0 0.38281 0.12891 0.12891 0.25781 0.38281 0.25781 0.51172v0.38281 0.25781 0.25781c0.12891 0.25781 0.12891 0.64062 0.38281 0.76953 0.25781 0.12891 0.38281 0.25781 0.51172 0.51172 0.38281 0.25781 0.64062 0.38281 1.0234 0.25781 0.12891 0 0.76953-0.38281 0.76953-0.51172h-0.38281l-0.25781-0.12891c-0.12891 0-0.25781 0.38281-0.38281 0.38281-0.12891 0-0.12891-0.25781-0.38281-0.25781-0.25781 0-0.51172-0.12891-0.64062-0.12891 0.125-0.38281-0.12891-0.64062-0.25781-0.89453zm0.76562-3.1992c-0.25781 0-0.51172-0.25781-0.76953-0.12891-0.25781 0.12891 0.12891 0.51172 0.25781 0.64062 0.38281 0.38281 0.38281 0.76953 0.51172 1.2812 0 0.38281 0.38281 0.64062 0.38281 1.0234v0.64062c0.12891 0.12891 0.38281 0 0.51172 0 0.25781-0.12891 0-0.38281 0-0.64062v-0.38281c0-0.12891-0.12891-0.25781-0.12891-0.25781 0.51172 0 0.38281-1.1523 0.12891-1.1523-0.25781 0-0.38281 0.12891-0.51172-0.12891-0.12891-0.25781 0-0.51172-0.25781-0.64062zm5.8906 12.672c0-0.12891-0.12891-0.12891-0.12891-0.25781 0-0.12891 0.12891-0.12891 0.25781-0.12891s0.12891-0.12891 0.25781 0 0.25781 0.25781 0.38281 0.25781c0 0 0.25781 0.12891 0.25781 0.25781-0.12891 0-0.25781 0.12891-0.25781 0.25781s0.12891 0.25781 0 0.25781h-0.25781-0.25781-0.12891c-0.12891 0 0-0.12891 0-0.12891v-0.25781c0-0.13281 0-0.13281-0.125-0.25781z" fill="#fff" fill-rule="evenodd"/>
</svg>
