<?xml version="1.0" encoding="UTF-8"?>
<svg width="128pt" height="128pt" version="1.1" viewBox="0 0 128 128" xmlns="http://www.w3.org/2000/svg">
 <path d="m89.727 95.23 1.2812-2.3047v-0.12891l-0.89453-1.4062 2.6875-1.9219v-0.12891l-0.89453-1.4062 0.12891-11.902v-0.12891h-0.12891-0.25781l2.3047-11.52-0.51172-1.4062-0.25781-11.777-0.89453-1.2812h-0.12891-0.12891l-1.1523 0.89844-0.125-0.89453 0.51172-1.6641-1.1523-4.9922 0.51172-2.4336 0.64062-0.89453v-0.12891l-0.25781-1.793 0.38281-1.4062v-0.12891l-1.1523-2.5586 0.25781-2.6875-0.51172-1.0234 0.38281-0.89453-0.25781-1.2812s0-0.12891-0.12891-0.12891l-18.816 1.1523-7.168 5.7617-2.0469 4.8633-4.2227 3.0703-0.76953 0.89453v0.12891l0.25781 1.1523s0 0.12891 0.12891 0.12891h1.5352l0.64062 0.64062v0.89453l-0.64062 0.51172-0.76953-0.12891h-0.12891l-0.25781 0.51172 0.12891 0.64062 1.0234 1.2812 0.51172 2.0469-0.38281 1.4062-3.5859 0.76953-3.457 2.8164-2.0391 0.89453-4.3555 0.25781-0.76562-0.12891-2.3047 0.76953-1.793-1.4062-3.8398-0.51563-11.902 2.6875v0.12891l2.1758 6.3984-2.6875 2.5586-0.76953 1.2812-0.76953 0.51172-0.76953 0.12891-5.8867 4.7344v0.12891 4.3516 0.12891h0.12891l52.609-1.2812 1.4062 0.64062 0.25781 1.2812 0.12891 0.12891 2.0469 0.64062-0.25781 0.51172v0.12891l0.51172 0.12891v2.6875l1.1523 2.0469 2.9453 0.76953 0.51172 0.89453 10.113 5.6328-1.2812 4.6094v0.12891h0.12891l1.793-2.9453zm22.402-4.4766-2.5586-0.12891-1.793 1.0234-1.0234 1.0234-1.2812 0.25781 0.12891-0.51172 2.5586-2.6875 0.51172-1.0234v-0.12891h-0.12891l-4.2227 3.5859-10.754 2.1758-3.7109 1.9219-0.64062 1.1523-1.0234 0.51172v0.12891l-0.12891 1.6641 0.12891 0.25781h0.12891s0.12891 0 0.12891-0.12891l0.12891-0.64062 0.76953-0.25781 0.12891 0.76953s0 0.12891 0.12891 0.12891l0.89453 0.25781 21.633-8.9609c-0.003906-0.13672-0.003906-0.26562-0.003906-0.39062v0z" fill="#fff"/>
</svg>
