<?xml version="1.0" encoding="UTF-8"?>
<svg width="128pt" height="128pt" version="1.1" viewBox="0 0 128 128" xmlns="http://www.w3.org/2000/svg">
 <path d="m128 50.004c-1.2148-0.050781-2.4258-0.097656-3.6445-0.14844l-0.13281 0.015625-0.125 0.03125-0.32031 0.28125-0.12109 0.050781c-8.4531-0.042969-16.914-0.085937-25.367-0.12891l-0.40234 0.1875-0.52734 0.14453c-13.691-0.47656-27.387-0.95312-41.078-1.4336l-0.125 0.011719-0.53516 0.12109c-6.3164 0.078125-12.633 0.15234-18.949 0.23438l-0.085937 0.027344-0.078126-0.078126-0.058593-0.10156-0.10938-0.25391-0.074219-0.10156-0.11328-0.039062c-0.97656-0.097657-1.957-0.19141-2.9336-0.28906l-0.074219 0.007813-0.023437 0.027343v0.085938l0.035156 0.18359 0.26562 0.86719 0.19531 0.94531 0.019531 0.29297-0.015625 0.66797-0.046875 0.42188c-6.8125 0-13.621 0-20.434-0.003906l-0.039063 0.10156-0.33203 0.41016-0.24609 0.23438-0.19141 0.11328-0.38672-0.10938-0.023437-0.26562 0.14062-0.36719 0.042969-0.15234-0.96875 0.027344 0.0625 0.070312 0.11719 0.26953-0.10156 0.33594-0.019532 0.28516 0.32422 0.75781 0.046875 0.41406-0.15625 0.40234-0.27344 0.17188-0.34375 0.042969-0.38672-0.003907-0.28516 0.14453 0.035156 0.33203 0.22266 0.375 0.28125 0.26953 0.36719 0.12109 0.14844 0.12109-0.054687 0.20313-0.15234 0.11328-0.17969 0.046875-1.375 0.050781-0.27344 0.097656 0.80469 1.1797 0.39453 0.74219-0.13672 0.33594-0.23047 0.058594-0.28516 0.14062-0.23828 0.18359-0.10547 0.16797-0.0625 0.30078-0.45312 0.75781c-0.046875 0.25391-0.097656 0.5-0.14453 0.75391l0.27344 0.46484 0.39062 0.40234 0.19531 0.55859-0.097657 0.34375-0.22656-0.058594-0.43359-0.34766-0.32422 0.039063-0.27734 0.13672-0.22266 0.23437-0.14063 0.33594 0.38672 0.1875 0.39844 0.28516 0.12891 0.33203-0.92969 0.76562-2.2617 0.99219-0.20703 0.24219-0.015626 0.32422 0.22266 0.42188 0.41406 0.53906-0.003906 0.23438-0.26172 0.28906-0.25 0.19922-0.097656 0.17188 0.066406 0.21094 0.22656 0.33594 0.19922 0.44531-0.15234 0.22656-0.33984 0.09375-0.36328 0.046875-0.35938 0.10156-0.18359 0.1875-0.0625 0.30859-0.011719 0.46094-0.074219 0.29688-0.17969 0.29297-0.23047 0.26562-0.78516 0.65625-0.17969 0.28906-0.066406 0.41797 0.023438 0.82422 0.058594 0.36328 0.28906 0.89062 0.15234 0.76172-0.011719 0.73047-0.30859 0.44531-0.29688-0.023438-0.40234-0.10156-0.35547 0.007812-0.15234 0.3125-0.03125 0.34766-0.097656 0.30859-0.15625 0.26953-0.21875 0.23828-0.54297 0.30859-0.34766 0.13672-0.28125 0.054688-0.16797 0.14062 0.12109 0.22656c10.48 0.011719 20.957 0.027344 31.438 0.039063l-0.16797-0.46875c17.781 0.24219 35.562 0.45312 53.344 0.43359l0.10156 0.039062c1.2461 0.070312 2.4922 0.13281 3.7383 0.1875 0.11719-1.3242 0.23438-2.6523 0.35156-3.9805l0.027344-0.13672 0.027344-0.082031 0.089843-0.16797 0.17969-0.21484 0.25781-0.25 0.09375-0.078125 0.12109-0.0625 0.22656-0.074219 0.125 0.003906 0.09375 0.035157 0.11328 0.11719 0.066406 0.054687 0.074219 0.035157 0.097656 0.019531 0.21484 0.003906 0.79688-0.089844 0.37891 0.003907 0.058594-0.011719 0.10156-0.066406 0.14844-0.125 0.29297-0.28906 0.12109-0.16016 0.070313-0.15234 0.023437-0.57422 0.023438-0.10156 0.0625-0.18359 0.042969-0.085937 0.25781-0.36719 0.042969-0.085937 0.027344-0.09375 0.019531-0.10156-0.011719-0.09375-0.066406-0.23438 0.003906-0.066406 0.011719-0.070312 0.03125-0.070313 0.042969-0.085937 0.33984-0.36328 0.10937-0.082031 0.13281-0.074219 0.62109-0.21875 0.10156-0.0625 0.11719-0.125 0.066406-0.089844 0.24219-0.48828 0.089844-0.078125 0.12891-0.074218 0.24219-0.085938 0.47266-0.10156 0.125-0.050782 0.14453-0.082031 0.23047-0.1875 0.35156-0.21484 0.28906-0.10938 0.29688-0.074218 0.097656-0.007813 0.52344 0.046875 0.058594-0.003906 0.046875-0.011719 0.14062-0.050781 0.10156-0.019532 0.09375-0.003906 0.09375 0.015625 0.085938 0.023438h0.13281l0.16797-0.027344 0.28906-0.089844 0.14062 0.011719 0.10938 0.035156 0.058593 0.058594 0.074219 0.058594 0.082031 0.054687 0.10156 0.027344 0.10156 0.011719 0.97656-0.19141 0.089843-0.050782 0.10547-0.082031 0.33594-0.32031 0.14844-0.18359 0.097656-0.085938 0.12891-0.085937 0.79688-0.33984 0.19531-0.15625 0.16406-0.18359 0.21875-0.19922 0.12891-0.066407 0.15625-0.03125 0.12891 0.003907 0.10938 0.027343 0.11328-0.007812 0.097656-0.046875 0.30469-0.41797 0.3125-0.30859 0.046875-0.066406 0.085938-0.066406 0.11328-0.058594 0.37109-0.13672 0.14844-0.089844 0.36328-0.36328 0.085937-0.058593 0.12109-0.050782 0.51172-0.15234 0.77734-0.40234 0.082031-0.027344 0.078126-0.003906 0.17578 0.046875 0.61328 0.058594 0.21875 0.054687 0.089844-0.027344 0.11719-0.078125 0.375-0.44922 0.36328-0.55078 0.082032-0.16016 0.027344-0.089844 0.035156-0.18359 0.046875-0.082031 0.16797-0.21484 0.039062-0.10938v-0.09375l-0.125-0.29297-0.027344-0.089844-0.019531-0.09375 0.003906-0.10156 0.019531-0.10156 0.03125-0.097656 0.042969-0.082031 0.046875-0.078126 0.082032-0.074218 0.12109-0.054688 0.23047-0.046875h0.15625l0.125 0.027344 0.1875 0.085937 0.20703 0.14453 0.15625 0.13281 0.078125 0.027344 0.097656-0.019531 0.085938-0.054688 0.085938-0.13672 0.035156-0.10547 0.070312-0.15234 0.17578-0.19141 0.042968-0.082032 0.027344-0.082031-0.011719-0.26172 0.023438-0.070312 0.03125-0.046875 0.023437-0.027344 1.0078-0.55469 0.35547-0.13281 0.71484-0.35547 0.13672-0.027343 0.10938 0.023437 0.054687 0.0625 0.24609 0.34375 0.023438 0.050782v0.050781l-0.023438 0.082031-0.089844 0.22656-0.023437 0.13281-0.007813 0.10938 0.011719 0.10156 0.082031 0.23828 0.042969 0.074218 0.050781 0.074219 0.054688 0.066407 0.074219 0.054687 0.085937 0.046875 0.097656 0.027344h0.097657l0.089843-0.023438 0.13281-0.058594 0.67969-0.42578 0.070313-0.03125 0.066406-0.042969 0.10156-0.085937 0.10938-0.11328 0.26562-0.35156 0.066406-0.12109 0.19531-0.42578 0.14844-0.21094 0.51172-0.54297 0.26562-0.19922 0.23438-0.125 0.14062-0.058593 0.53906-0.14453 0.36719-0.18359 0.12109-0.015624 0.31641 0.007812 0.082031-0.035156 0.45703-0.33203 0.16797-0.074218 0.078125-0.019532 0.054688 0.003907 0.078124 0.027343 0.14063 0.10156 0.082031 0.039063 0.10156 0.019531 0.19922 0.003906 0.089844 0.023437 0.082031 0.035157 0.0625 0.046875 0.042969 0.058594 0.03125 0.082031 0.019531 0.082031 0.011719 0.085938 0.023437 0.089843 0.03125 0.078125 0.050781 0.070313 0.066407 0.058593 0.082031 0.050782 0.097656 0.046875 0.22266 0.0625 0.11719 0.015625h0.10547l0.125-0.058594 0.14453-0.089844 0.23828-0.21484 0.14453-0.070312 0.14844-0.12891 0.11328-0.15625 1.4883-2.8125 0.0625-0.082032 0.40234-0.33594 1.1484-0.77344 0.074218-0.03125h0.074219l0.78125 0.26562 0.45703 0.0625 0.070313-0.015624 0.03125-0.054688-0.027344-0.09375-0.042969-0.082031-0.19531-0.28516-0.15625-0.31641-0.027344-0.082031 0.011719-0.12891 0.050781-0.16406 0.38672-0.77344 0.23828-0.67188-0.007812-0.16406-0.21094-0.44531-0.027344-0.085938 0.13281-0.37109z" fill="#fff"/>
</svg>
