<?xml version="1.0" encoding="UTF-8"?>
<svg width="128pt" height="128pt" version="1.1" viewBox="0 0 128 128" xmlns="http://www.w3.org/2000/svg">
 <path d="m123.69 68.766-0.41016-3-2.7227-5.625-2.1367-2.9414-0.56641-9.9414v-6.2148h-4.3398v-0.80469l-2.8945-0.55859-1.0469-1.3711-2.5039-0.88281-1.0195 0.58984-1.4258 0.35156-1.9375-0.48438-2.6914 0.53906-1.9727 1.1055h-1.2969l-2.4609-0.94531-2.543-0.3125-1.8789 0.78516-3.8125-1.0742-0.61328-0.89062-1.0234 0.70312-0.95312 0.35547-2.418-3.0703-2.1562 0.55469-4.6836-0.8125-2.0781-1.2305-1.2227-1.6641-1.793 0.25391-1.6914-0.46484-2.1445-1.2266-0.26953-20.059-24.898-1.4258-0.82422 1.4219-2.082 45.621-31.477-3.3008v2.0781l2.5781 2.0117 9.8086 10.562 2.7617 1.7812 1.5234 7.8789 4.832 5.9531 4.418 2.9141 3.1797 1.5469 1.3594-0.84375 3.332-6.3125 2.1953-1.3203 7.5742 0.51562 2.2656 0.57812 5.2227 5.7383 3.7422 7.1797 3.9531 5.1289 1.5391 3.2812 2.9727 2.0508 1.7695 6.5156 2.1523 4.0742 3.3516 2.7539 14.305 4.043 2.168 0.32422 0.16406-1.0898-1.9805-4.5742-0.57422-3.4297 0.82031-4.8516 1.1641-4.5391 1.7148-2.1016 0.39844-2.1328 2.1953-1.582 1.9062-0.56641 0.50391-1.3359-0.33594-1.1367 3.8398-0.51562h4.0469l2.9258-1.9219 1.7695-2.3516 0.85938-7.6562 0.66406-0.39844 1.0312 2.9883 2.0273-0.375 5.7969-2.1836-0.89844-1.2656 1.3438-2.4609 0.45703-1.4141-0.3125-2.3828 0.32422-2.4258z" fill="#fff"/>
</svg>
