<svg width="2148" height="1094" xmlns="http://www.w3.org/2000/svg" xmlns:xlink="http://www.w3.org/1999/xlink" xml:space="preserve" overflow="hidden"><defs><clipPath id="clip0"><rect x="-1" y="-1" width="2148" height="1094"/></clipPath><clipPath id="clip1"><rect x="189" y="53" width="1909" height="856"/></clipPath><clipPath id="clip2"><rect x="0" y="0" width="2145" height="1090"/></clipPath><clipPath id="clip3"><rect x="0" y="0" width="2145" height="1090"/></clipPath><clipPath id="clip4"><rect x="0" y="0" width="2145" height="1090"/></clipPath><clipPath id="clip5"><rect x="0" y="0" width="2145" height="1090"/></clipPath><clipPath id="clip6"><rect x="0" y="0" width="2145" height="1090"/></clipPath><clipPath id="clip7"><rect x="0" y="0" width="2145" height="1090"/></clipPath><clipPath id="clip8"><rect x="0" y="0" width="2145" height="1090"/></clipPath><clipPath id="clip9"><rect x="0" y="0" width="2145" height="1090"/></clipPath><clipPath id="clip10"><rect x="0" y="0" width="2145" height="1090"/></clipPath><clipPath id="clip11"><rect x="0" y="0" width="2145" height="1090"/></clipPath><clipPath id="clip12"><rect x="0" y="0" width="2145" height="1090"/></clipPath><clipPath id="clip13"><rect x="0" y="0" width="2145" height="1090"/></clipPath><clipPath id="clip14"><rect x="0" y="0" width="2145" height="1090"/></clipPath><clipPath id="clip15"><rect x="0" y="0" width="2145" height="1090"/></clipPath><clipPath id="clip16"><rect x="0" y="0" width="2145" height="1090"/></clipPath><clipPath id="clip17"><rect x="0" y="0" width="2145" height="1090"/></clipPath><clipPath id="clip18"><rect x="0" y="0" width="2145" height="1090"/></clipPath><clipPath id="clip19"><rect x="0" y="0" width="2145" height="1090"/></clipPath><clipPath id="clip20"><rect x="0" y="0" width="2145" height="1090"/></clipPath><clipPath id="clip21"><rect x="0" y="0" width="2145" height="1090"/></clipPath><clipPath id="clip22"><rect x="0" y="0" width="2145" height="1090"/></clipPath><clipPath id="clip23"><rect x="0" y="0" width="2145" height="1090"/></clipPath><clipPath id="clip24"><rect x="0" y="0" width="2145" height="1090"/></clipPath><clipPath id="clip25"><rect x="0" y="0" width="2145" height="1090"/></clipPath><clipPath id="clip26"><rect x="0" y="0" width="2145" height="1090"/></clipPath><clipPath id="clip27"><rect x="0" y="0" width="2145" height="1090"/></clipPath><clipPath id="clip28"><rect x="0" y="0" width="2145" height="1090"/></clipPath><clipPath id="clip29"><rect x="0" y="0" width="2145" height="1090"/></clipPath><clipPath id="clip30"><rect x="0" y="0" width="2145" height="1090"/></clipPath><clipPath id="clip31"><rect x="0" y="0" width="2145" height="1090"/></clipPath></defs><g clip-path="url(#clip0)" transform="translate(1 1)"><rect x="0" y="0" width="2145" height="1091" fill="#FFFFFF"/><g clip-path="url(#clip1)"><path d="M298.01 669.022 398.013 669.022 398.013 906 298.01 906ZM616.02 875.029 715.023 875.029 715.023 906 616.02 906ZM933.031 691.023 1033.03 691.023 1033.03 906 933.031 906ZM1251.04 656.021 1350.04 656.021 1350.04 906 1251.04 906ZM1568.05 795.026 1668.05 795.026 1668.05 906 1568.05 906ZM1886.06 897.029 1986.07 897.029 1986.07 906 1886.06 906Z" fill="#161C82"/></g><g clip-path="url(#clip2)"><path d="M189.5 905.5 2094.5 905.5" stroke="#D9D9D9" stroke-width="3.4375" stroke-linejoin="round" stroke-miterlimit="10" fill="none" fill-rule="evenodd"/></g><g clip-path="url(#clip3)"><text font-family="Calibri,Calibri_MSFontService,sans-serif" font-weight="400" font-size="50" transform="matrix(1 0 0 1 304.477 635)">28%</text></g><g clip-path="url(#clip4)"><text font-family="Calibri,Calibri_MSFontService,sans-serif" font-weight="400" font-size="50" transform="matrix(1 0 0 1 634.804 841)">4%</text></g><g clip-path="url(#clip5)"><text font-family="Calibri,Calibri_MSFontService,sans-serif" font-weight="400" font-size="50" transform="matrix(1 0 0 1 939.579 657)">25%</text></g><g clip-path="url(#clip6)"><text font-family="Calibri,Calibri_MSFontService,sans-serif" font-weight="400" font-size="50" transform="matrix(1 0 0 1 1257.13 622)">29%</text></g><g clip-path="url(#clip7)"><text font-family="Calibri,Calibri_MSFontService,sans-serif" font-weight="400" font-size="50" transform="matrix(1 0 0 1 1574.68 761)">13%</text></g><g clip-path="url(#clip8)"><text font-family="Calibri,Calibri_MSFontService,sans-serif" font-weight="400" font-size="50" transform="matrix(1 0 0 1 1905.01 863)">1%</text></g><g clip-path="url(#clip9)"><text font-family="Calibri,Calibri_MSFontService,sans-serif" font-weight="400" font-size="50" transform="matrix(1 0 0 1 80.8962 920)">0%</text></g><g clip-path="url(#clip10)"><text font-family="Calibri,Calibri_MSFontService,sans-serif" font-weight="400" font-size="50" transform="matrix(1 0 0 1 55.3439 750)">20%</text></g><g clip-path="url(#clip11)"><text font-family="Calibri,Calibri_MSFontService,sans-serif" font-weight="400" font-size="50" transform="matrix(1 0 0 1 55.3439 579)">40%</text></g><g clip-path="url(#clip12)"><text font-family="Calibri,Calibri_MSFontService,sans-serif" font-weight="400" font-size="50" transform="matrix(1 0 0 1 55.3439 409)">60%</text></g><g clip-path="url(#clip13)"><text font-family="Calibri,Calibri_MSFontService,sans-serif" font-weight="400" font-size="50" transform="matrix(1 0 0 1 55.3439 239)">80%</text></g><g clip-path="url(#clip14)"><text font-family="Calibri,Calibri_MSFontService,sans-serif" font-weight="400" font-size="50" transform="matrix(1 0 0 1 29.7917 68)">100%</text></g><g clip-path="url(#clip15)"><text font-family="Calibri,Calibri_MSFontService,sans-serif" font-weight="400" font-size="50" transform="matrix(1 0 0 1 224.017 986)">18</text></g><g clip-path="url(#clip16)"><text font-family="Calibri,Calibri_MSFontService,sans-serif" font-weight="400" font-size="50" transform="matrix(1 0 0 1 275.121 986)">–</text></g><g clip-path="url(#clip17)"><text font-family="Calibri,Calibri_MSFontService,sans-serif" font-weight="400" font-size="50" transform="matrix(1 0 0 1 300.237 986)">30 years </text></g><g clip-path="url(#clip18)"><text font-family="Calibri,Calibri_MSFontService,sans-serif" font-weight="400" font-size="50" transform="matrix(1 0 0 1 315.729 1048)">old</text></g><g clip-path="url(#clip19)"><text font-family="Calibri,Calibri_MSFontService,sans-serif" font-weight="400" font-size="50" transform="matrix(1 0 0 1 520.999 986)">21 to 30 years</text></g><g clip-path="url(#clip20)"><text font-family="Calibri,Calibri_MSFontService,sans-serif" font-weight="400" font-size="50" transform="matrix(1 0 0 1 633.28 1047)">old</text></g><g clip-path="url(#clip21)"><text font-family="Calibri,Calibri_MSFontService,sans-serif" font-weight="400" font-size="50" transform="matrix(1 0 0 1 859.119 986)">31</text></g><g clip-path="url(#clip22)"><text font-family="Calibri,Calibri_MSFontService,sans-serif" font-weight="400" font-size="50" transform="matrix(1 0 0 1 910.223 986)">–</text></g><g clip-path="url(#clip23)"><text font-family="Calibri,Calibri_MSFontService,sans-serif" font-weight="400" font-size="50" transform="matrix(1 0 0 1 935.339 986)">40 years </text></g><g clip-path="url(#clip24)"><text font-family="Calibri,Calibri_MSFontService,sans-serif" font-weight="400" font-size="50" transform="matrix(1 0 0 1 950.831 1048)">old</text></g><g clip-path="url(#clip25)"><text font-family="Calibri,Calibri_MSFontService,sans-serif" font-weight="400" font-size="50" transform="matrix(1 0 0 1 1176.67 986)">41</text></g><g clip-path="url(#clip26)"><text font-family="Calibri,Calibri_MSFontService,sans-serif" font-weight="400" font-size="50" transform="matrix(1 0 0 1 1227.77 986)">–</text></g><g clip-path="url(#clip27)"><text font-family="Calibri,Calibri_MSFontService,sans-serif" font-weight="400" font-size="50" transform="matrix(1 0 0 1 1252.89 986)">50 years </text></g><g clip-path="url(#clip28)"><text font-family="Calibri,Calibri_MSFontService,sans-serif" font-weight="400" font-size="50" transform="matrix(1 0 0 1 1268.38 1048)">old</text></g><g clip-path="url(#clip29)"><text font-family="Calibri,Calibri_MSFontService,sans-serif" font-weight="400" font-size="50" transform="matrix(1 0 0 1 1537.59 986)">Over 50</text></g><g clip-path="url(#clip30)"><text font-family="Calibri,Calibri_MSFontService,sans-serif" font-weight="400" font-size="50" transform="matrix(1 0 0 1 1804.31 986)">Prefer not to</text></g><g clip-path="url(#clip31)"><text font-family="Calibri,Calibri_MSFontService,sans-serif" font-weight="400" font-size="50" transform="matrix(1 0 0 1 1861.27 1047)">answer</text></g><rect x="0.499836" y="0.499836" width="2145" height="1091" stroke="#161C82" stroke-width="3.4375" stroke-linejoin="round" stroke-miterlimit="10" fill="none"/></g></svg>