<svg width="2148" height="1069" xmlns="http://www.w3.org/2000/svg" xmlns:xlink="http://www.w3.org/1999/xlink" xml:space="preserve" overflow="hidden"><defs><clipPath id="clip0"><rect x="-1" y="-1" width="2148" height="1069"/></clipPath><clipPath id="clip1"><rect x="189" y="53" width="1909" height="770"/></clipPath><clipPath id="clip2"><rect x="0" y="0" width="2145" height="1066"/></clipPath><clipPath id="clip3"><rect x="0" y="0" width="2145" height="1066"/></clipPath><clipPath id="clip4"><rect x="0" y="0" width="2145" height="1066"/></clipPath><clipPath id="clip5"><rect x="0" y="0" width="2145" height="1066"/></clipPath><clipPath id="clip6"><rect x="0" y="0" width="2145" height="1066"/></clipPath><clipPath id="clip7"><rect x="0" y="0" width="2145" height="1066"/></clipPath><clipPath id="clip8"><rect x="0" y="0" width="2145" height="1066"/></clipPath><clipPath id="clip9"><rect x="0" y="0" width="2145" height="1066"/></clipPath><clipPath id="clip10"><rect x="0" y="0" width="2145" height="1066"/></clipPath><clipPath id="clip11"><rect x="0" y="0" width="2145" height="1066"/></clipPath><clipPath id="clip12"><rect x="0" y="0" width="2145" height="1066"/></clipPath><clipPath id="clip13"><rect x="0" y="0" width="2145" height="1066"/></clipPath><clipPath id="clip14"><rect x="0" y="0" width="2145" height="1066"/></clipPath><clipPath id="clip15"><rect x="0" y="0" width="2145" height="1066"/></clipPath><clipPath id="clip16"><rect x="0" y="0" width="2145" height="1066"/></clipPath><clipPath id="clip17"><rect x="0" y="0" width="2145" height="1066"/></clipPath><clipPath id="clip18"><rect x="0" y="0" width="2145" height="1066"/></clipPath><clipPath id="clip19"><rect x="0" y="0" width="2145" height="1066"/></clipPath><clipPath id="clip20"><rect x="0" y="0" width="2145" height="1066"/></clipPath><clipPath id="clip21"><rect x="0" y="0" width="2145" height="1066"/></clipPath><clipPath id="clip22"><rect x="0" y="0" width="2145" height="1066"/></clipPath><clipPath id="clip23"><rect x="0" y="0" width="2145" height="1066"/></clipPath><clipPath id="clip24"><rect x="0" y="0" width="2145" height="1066"/></clipPath><clipPath id="clip25"><rect x="0" y="0" width="2145" height="1066"/></clipPath></defs><g clip-path="url(#clip0)" transform="translate(1 1)"><g clip-path="url(#clip1)"><path d="M298.51 278.509 397.513 278.509 397.513 819.5 298.51 819.5ZM615.52 744.525 715.524 744.525 715.524 819.5 615.52 819.5ZM933.531 751.525 1032.53 751.525 1032.53 819.5 933.531 819.5ZM1250.54 783.526 1350.54 783.526 1350.54 819.5 1250.54 819.5ZM1568.55 794.526 1667.55 794.526 1667.55 819.5 1568.55 819.5ZM1885.56 804.527 1985.57 804.527 1985.57 819.5 1885.56 819.5Z" stroke="#161C82" stroke-width="3.4375" stroke-linejoin="round" stroke-miterlimit="10" fill="#161C82"/></g><g clip-path="url(#clip2)"><path d="M189.5 819.5 2094.5 819.5" stroke="#D9D9D9" stroke-width="3.4375" stroke-linejoin="round" stroke-miterlimit="10" fill="none" fill-rule="evenodd"/></g><g clip-path="url(#clip3)"><text font-family="Calibri,Calibri_MSFontService,sans-serif" font-weight="400" font-size="50" transform="matrix(1 0 0 1 304.477 244)">71%</text></g><g clip-path="url(#clip4)"><text font-family="Calibri,Calibri_MSFontService,sans-serif" font-weight="400" font-size="50" transform="matrix(1 0 0 1 622.028 711)">10%</text></g><g clip-path="url(#clip5)"><text font-family="Calibri,Calibri_MSFontService,sans-serif" font-weight="400" font-size="50" transform="matrix(1 0 0 1 952.355 717)">9%</text></g><g clip-path="url(#clip6)"><text font-family="Calibri,Calibri_MSFontService,sans-serif" font-weight="400" font-size="50" transform="matrix(1 0 0 1 1269.91 749)">5%</text></g><g clip-path="url(#clip7)"><text font-family="Calibri,Calibri_MSFontService,sans-serif" font-weight="400" font-size="50" transform="matrix(1 0 0 1 1587.46 761)">3%</text></g><g clip-path="url(#clip8)"><text font-family="Calibri,Calibri_MSFontService,sans-serif" font-weight="400" font-size="50" transform="matrix(1 0 0 1 1905.01 770)">2%</text></g><g clip-path="url(#clip9)"><text font-family="Calibri,Calibri_MSFontService,sans-serif" font-weight="400" font-size="50" transform="matrix(1 0 0 1 80.8962 834)">0%</text></g><g clip-path="url(#clip10)"><text font-family="Calibri,Calibri_MSFontService,sans-serif" font-weight="400" font-size="50" transform="matrix(1 0 0 1 55.3439 681)">20%</text></g><g clip-path="url(#clip11)"><text font-family="Calibri,Calibri_MSFontService,sans-serif" font-weight="400" font-size="50" transform="matrix(1 0 0 1 55.3439 528)">40%</text></g><g clip-path="url(#clip12)"><text font-family="Calibri,Calibri_MSFontService,sans-serif" font-weight="400" font-size="50" transform="matrix(1 0 0 1 55.3439 375)">60%</text></g><g clip-path="url(#clip13)"><text font-family="Calibri,Calibri_MSFontService,sans-serif" font-weight="400" font-size="50" transform="matrix(1 0 0 1 55.3439 221)">80%</text></g><g clip-path="url(#clip14)"><text font-family="Calibri,Calibri_MSFontService,sans-serif" font-weight="400" font-size="50" transform="matrix(1 0 0 1 29.7917 68)">100%</text></g><g clip-path="url(#clip15)"><text font-family="Calibri,Calibri_MSFontService,sans-serif" font-weight="400" font-size="50" transform="matrix(1 0 0 1 285.605 900)">White</text></g><g clip-path="url(#clip16)"><text font-family="Calibri,Calibri_MSFontService,sans-serif" font-weight="400" font-size="50" transform="matrix(1 0 0 1 584.135 900)">Black or</text></g><g clip-path="url(#clip17)"><text font-family="Calibri,Calibri_MSFontService,sans-serif" font-weight="400" font-size="50" transform="matrix(1 0 0 1 592.774 961)">African</text></g><g clip-path="url(#clip18)"><text font-family="Calibri,Calibri_MSFontService,sans-serif" font-weight="400" font-size="50" transform="matrix(1 0 0 1 567.784 1023)">American</text></g><g clip-path="url(#clip19)"><text font-family="Calibri,Calibri_MSFontService,sans-serif" font-weight="400" font-size="50" transform="matrix(1 0 0 1 869.018 900)">Hispanic or</text></g><g clip-path="url(#clip20)"><text font-family="Calibri,Calibri_MSFontService,sans-serif" font-weight="400" font-size="50" transform="matrix(1 0 0 1 922.081 961)">Latinx</text></g><g clip-path="url(#clip21)"><text font-family="Calibri,Calibri_MSFontService,sans-serif" font-weight="400" font-size="50" transform="matrix(1 0 0 1 1169.21 900)">Prefer not to</text></g><g clip-path="url(#clip22)"><text font-family="Calibri,Calibri_MSFontService,sans-serif" font-weight="400" font-size="50" transform="matrix(1 0 0 1 1267.36 961)">say</text></g><g clip-path="url(#clip23)"><text font-family="Calibri,Calibri_MSFontService,sans-serif" font-weight="400" font-size="50" transform="matrix(1 0 0 1 1562.71 900)">Asian</text></g><g clip-path="url(#clip24)"><text font-family="Calibri,Calibri_MSFontService,sans-serif" font-weight="400" font-size="50" transform="matrix(1 0 0 1 1803.98 900)">Two or more</text></g><g clip-path="url(#clip25)"><text font-family="Calibri,Calibri_MSFontService,sans-serif" font-weight="400" font-size="50" transform="matrix(1 0 0 1 1881.88 961)">races</text></g><rect x="0.499836" y="0.499836" width="2145" height="1066" stroke="#161C82" stroke-width="3.4375" stroke-linejoin="round" stroke-miterlimit="10" fill="none"/></g></svg>