<svg width="2148" height="1143" xmlns="http://www.w3.org/2000/svg" xmlns:xlink="http://www.w3.org/1999/xlink" xml:space="preserve" overflow="hidden"><defs><clipPath id="clip0"><rect x="-1" y="-1" width="2148" height="1143"/></clipPath><clipPath id="clip1"><rect x="189" y="53" width="1909" height="844"/></clipPath><clipPath id="clip2"><rect x="0" y="0" width="2145" height="1140"/></clipPath><clipPath id="clip3"><rect x="0" y="0" width="2145" height="1140"/></clipPath><clipPath id="clip4"><rect x="0" y="0" width="2145" height="1140"/></clipPath><clipPath id="clip5"><rect x="0" y="0" width="2145" height="1140"/></clipPath><clipPath id="clip6"><rect x="0" y="0" width="2145" height="1140"/></clipPath><clipPath id="clip7"><rect x="0" y="0" width="2145" height="1140"/></clipPath><clipPath id="clip8"><rect x="0" y="0" width="2145" height="1140"/></clipPath><clipPath id="clip9"><rect x="0" y="0" width="2145" height="1140"/></clipPath><clipPath id="clip10"><rect x="0" y="0" width="2145" height="1140"/></clipPath><clipPath id="clip11"><rect x="0" y="0" width="2145" height="1140"/></clipPath><clipPath id="clip12"><rect x="0" y="0" width="2145" height="1140"/></clipPath><clipPath id="clip13"><rect x="0" y="0" width="2145" height="1140"/></clipPath><clipPath id="clip14"><rect x="0" y="0" width="2145" height="1140"/></clipPath><clipPath id="clip15"><rect x="0" y="0" width="2145" height="1140"/></clipPath><clipPath id="clip16"><rect x="0" y="0" width="2145" height="1140"/></clipPath><clipPath id="clip17"><rect x="0" y="0" width="2145" height="1140"/></clipPath><clipPath id="clip18"><rect x="0" y="0" width="2145" height="1140"/></clipPath></defs><g clip-path="url(#clip0)" transform="translate(1 1)"><g clip-path="url(#clip1)"><path d="M353.012 323.011 502.016 323.011 502.016 894 353.012 894ZM829.027 631.021 978.032 631.021 978.032 894 829.027 894ZM1305.04 889.029 1455.05 889.029 1455.05 894 1305.04 894ZM1782.06 892.029 1931.06 892.029 1931.06 894 1782.06 894Z" fill="#161C82"/></g><g clip-path="url(#clip2)"><path d="M189.5 893.5 2094.5 893.5" stroke="#D9D9D9" stroke-width="3.4375" stroke-linejoin="round" stroke-miterlimit="10" fill="none" fill-rule="evenodd"/></g><g clip-path="url(#clip3)"><text font-family="Calibri,Calibri_MSFontService,sans-serif" font-weight="400" font-size="50" transform="matrix(1 0 0 1 383.864 289)">68%</text></g><g clip-path="url(#clip4)"><text font-family="Calibri,Calibri_MSFontService,sans-serif" font-weight="400" font-size="50" transform="matrix(1 0 0 1 860.191 597)">31%</text></g><g clip-path="url(#clip5)"><text font-family="Calibri,Calibri_MSFontService,sans-serif" font-weight="400" font-size="50" transform="matrix(1 0 0 1 1349.29 855)">1%</text></g><g clip-path="url(#clip6)"><text font-family="Calibri,Calibri_MSFontService,sans-serif" font-weight="400" font-size="50" transform="matrix(1 0 0 1 1825.62 858)">0%</text></g><g clip-path="url(#clip7)"><text font-family="Calibri,Calibri_MSFontService,sans-serif" font-weight="400" font-size="50" transform="matrix(1 0 0 1 80.8962 908)">0%</text></g><g clip-path="url(#clip8)"><text font-family="Calibri,Calibri_MSFontService,sans-serif" font-weight="400" font-size="50" transform="matrix(1 0 0 1 55.3439 740)">20%</text></g><g clip-path="url(#clip9)"><text font-family="Calibri,Calibri_MSFontService,sans-serif" font-weight="400" font-size="50" transform="matrix(1 0 0 1 55.3439 572)">40%</text></g><g clip-path="url(#clip10)"><text font-family="Calibri,Calibri_MSFontService,sans-serif" font-weight="400" font-size="50" transform="matrix(1 0 0 1 55.3439 404)">60%</text></g><g clip-path="url(#clip11)"><text font-family="Calibri,Calibri_MSFontService,sans-serif" font-weight="400" font-size="50" transform="matrix(1 0 0 1 55.3439 236)">80%</text></g><g clip-path="url(#clip12)"><text font-family="Calibri,Calibri_MSFontService,sans-serif" font-weight="400" font-size="50" transform="matrix(1 0 0 1 29.7917 68)">100%</text></g><g clip-path="url(#clip13)"><text font-family="Calibri,Calibri_MSFontService,sans-serif" font-weight="400" font-size="50" transform="matrix(1 0 0 1 352.766 974)">Female</text></g><g clip-path="url(#clip14)"><text font-family="Calibri,Calibri_MSFontService,sans-serif" font-weight="400" font-size="50" transform="matrix(1 0 0 1 851.803 974)">Male</text></g><g clip-path="url(#clip15)"><text font-family="Calibri,Calibri_MSFontService,sans-serif" font-weight="400" font-size="50" transform="matrix(1 0 0 1 1209.56 974)">Prefer not to say</text></g><g clip-path="url(#clip16)"><text font-family="Calibri,Calibri_MSFontService,sans-serif" font-weight="400" font-size="50" transform="matrix(1 0 0 1 1665.41 974)">Transgender, Non-</text></g><g clip-path="url(#clip17)"><text font-family="Calibri,Calibri_MSFontService,sans-serif" font-weight="400" font-size="50" transform="matrix(1 0 0 1 1667.48 1035)">Binary, or Another</text></g><g clip-path="url(#clip18)"><text font-family="Calibri,Calibri_MSFontService,sans-serif" font-weight="400" font-size="50" transform="matrix(1 0 0 1 1780.14 1097)">Gender</text></g><rect x="0.499836" y="0.499836" width="2145" height="1140" stroke="#161C82" stroke-width="3.4375" stroke-linejoin="round" stroke-miterlimit="10" fill="none"/></g></svg>