<svg width="2148" height="1094" xmlns="http://www.w3.org/2000/svg" xmlns:xlink="http://www.w3.org/1999/xlink" xml:space="preserve" overflow="hidden"><defs><clipPath id="clip0"><rect x="-1" y="-1" width="2148" height="1094"/></clipPath><clipPath id="clip1"><rect x="476" y="50" width="1551" height="920"/></clipPath><clipPath id="clip2"><rect x="0" y="0" width="2145" height="1090"/></clipPath><clipPath id="clip3"><rect x="0" y="0" width="2145" height="1090"/></clipPath><clipPath id="clip4"><rect x="0" y="0" width="2145" height="1090"/></clipPath><clipPath id="clip5"><rect x="0" y="0" width="2145" height="1090"/></clipPath><clipPath id="clip6"><rect x="0" y="0" width="2145" height="1090"/></clipPath><clipPath id="clip7"><rect x="0" y="0" width="2145" height="1090"/></clipPath><clipPath id="clip8"><rect x="0" y="0" width="2145" height="1090"/></clipPath><clipPath id="clip9"><rect x="0" y="0" width="2145" height="1090"/></clipPath><clipPath id="clip10"><rect x="0" y="0" width="2145" height="1090"/></clipPath><clipPath id="clip11"><rect x="0" y="0" width="2145" height="1090"/></clipPath><clipPath id="clip12"><rect x="0" y="0" width="2145" height="1090"/></clipPath><clipPath id="clip13"><rect x="0" y="0" width="2145" height="1090"/></clipPath><clipPath id="clip14"><rect x="0" y="0" width="2145" height="1090"/></clipPath><clipPath id="clip15"><rect x="0" y="0" width="2145" height="1090"/></clipPath><clipPath id="clip16"><rect x="0" y="0" width="2145" height="1090"/></clipPath><clipPath id="clip17"><rect x="0" y="0" width="2145" height="1090"/></clipPath><clipPath id="clip18"><rect x="0" y="0" width="2145" height="1090"/></clipPath><clipPath id="clip19"><rect x="0" y="0" width="2145" height="1090"/></clipPath><clipPath id="clip20"><rect x="0" y="0" width="2145" height="1090"/></clipPath><clipPath id="clip21"><rect x="0" y="0" width="2145" height="1090"/></clipPath><clipPath id="clip22"><rect x="0" y="0" width="2145" height="1090"/></clipPath><clipPath id="clip23"><rect x="0" y="0" width="2145" height="1090"/></clipPath><clipPath id="clip24"><rect x="0" y="0" width="2145" height="1090"/></clipPath><clipPath id="clip25"><rect x="0" y="0" width="2145" height="1090"/></clipPath><clipPath id="clip26"><rect x="0" y="0" width="2145" height="1090"/></clipPath><clipPath id="clip27"><rect x="0" y="0" width="2145" height="1090"/></clipPath></defs><g clip-path="url(#clip0)" transform="translate(1 1)"><rect x="0" y="0" width="2145" height="1091" fill="#FFFFFF"/><g clip-path="url(#clip1)"><path d="M481.016 936.031 476 936.031 476 907.03 481.016 907.03ZM482.016 844.028 476 844.028 476 816.027 482.016 816.027ZM489.016 753.025 476 753.025 476 724.024 489.016 724.024ZM521.017 661.022 476 661.022 476 632.021 521.017 632.021ZM535.018 569.019 476 569.019 476 540.018 535.018 540.018ZM544.018 477.016 476 477.016 476 449.015 544.018 449.015ZM590.019 386.013 476 386.013 476 357.012 590.019 357.012ZM625.021 294.01 476 294.01 476 265.009 625.021 265.009ZM714.023 202.007 476 202.007 476 174.006 714.023 174.006ZM1915.06 111.004 476 111.004 476 82.0027 1915.06 82.0027Z" fill="#161C82"/></g><g clip-path="url(#clip2)"><path d="M0 0 0.000360892 917" stroke="#D9D9D9" stroke-width="3.4375" stroke-linejoin="round" stroke-miterlimit="10" fill="none" fill-rule="evenodd" transform="matrix(1 0 0 -1 476.5 967.5)"/></g><g clip-path="url(#clip3)"><text font-family="Calibri,Calibri_MSFontService,sans-serif" font-weight="400" font-size="50" transform="matrix(1 0 0 1 508.919 939)">132</text></g><g clip-path="url(#clip4)"><text font-family="Calibri,Calibri_MSFontService,sans-serif" font-weight="400" font-size="50" transform="matrix(1 0 0 1 509.654 847)">151</text></g><g clip-path="url(#clip5)"><text font-family="Calibri,Calibri_MSFontService,sans-serif" font-weight="400" font-size="50" transform="matrix(1 0 0 1 516.04 755)">316</text></g><g clip-path="url(#clip6)"><text font-family="Calibri,Calibri_MSFontService,sans-serif" font-weight="400" font-size="50" transform="matrix(1 0 0 1 548.163 664)">1,146</text></g><g clip-path="url(#clip7)"><text font-family="Calibri,Calibri_MSFontService,sans-serif" font-weight="400" font-size="50" transform="matrix(1 0 0 1 562.367 572)">1,513</text></g><g clip-path="url(#clip8)"><text font-family="Calibri,Calibri_MSFontService,sans-serif" font-weight="400" font-size="50" transform="matrix(1 0 0 1 571.539 480)">1,750</text></g><g clip-path="url(#clip9)"><text font-family="Calibri,Calibri_MSFontService,sans-serif" font-weight="400" font-size="50" transform="matrix(1 0 0 1 617.441 389)">2,936</text></g><g clip-path="url(#clip10)"><text font-family="Calibri,Calibri_MSFontService,sans-serif" font-weight="400" font-size="50" transform="matrix(1 0 0 1 652.544 297)">3,843</text></g><g clip-path="url(#clip11)"><text font-family="Calibri,Calibri_MSFontService,sans-serif" font-weight="400" font-size="50" transform="matrix(1 0 0 1 741.908 205)">6,152</text></g><g clip-path="url(#clip12)"><text font-family="Calibri,Calibri_MSFontService,sans-serif" font-weight="400" font-size="50" transform="matrix(1 0 0 1 1943 114)">37,186</text></g><g clip-path="url(#clip13)"><text font-family="Calibri,Calibri_MSFontService,sans-serif" font-weight="400" font-size="50" transform="matrix(1 0 0 1 463.534 1047)">0</text></g><g clip-path="url(#clip14)"><text font-family="Calibri,Calibri_MSFontService,sans-serif" font-weight="400" font-size="50" transform="matrix(1 0 0 1 793.165 1047)">10,000</text></g><g clip-path="url(#clip15)"><text font-family="Calibri,Calibri_MSFontService,sans-serif" font-weight="400" font-size="50" transform="matrix(1 0 0 1 1180.19 1047)">20,000</text></g><g clip-path="url(#clip16)"><text font-family="Calibri,Calibri_MSFontService,sans-serif" font-weight="400" font-size="50" transform="matrix(1 0 0 1 1567.22 1047)">30,000</text></g><g clip-path="url(#clip17)"><text font-family="Calibri,Calibri_MSFontService,sans-serif" font-weight="400" font-size="50" transform="matrix(1 0 0 1 1954.24 1047)">40,000</text></g><g clip-path="url(#clip18)"><text font-family="Calibri,Calibri_MSFontService,sans-serif" font-weight="400" font-size="50" transform="matrix(1 0 0 1 295.604 936)">Tennis</text></g><g clip-path="url(#clip19)"><text font-family="Calibri,Calibri_MSFontService,sans-serif" font-weight="400" font-size="50" transform="matrix(1 0 0 1 279.379 844)">Hockey</text></g><g clip-path="url(#clip20)"><text font-family="Calibri,Calibri_MSFontService,sans-serif" font-weight="400" font-size="50" transform="matrix(1 0 0 1 232.033 753)">Wrestling</text></g><g clip-path="url(#clip21)"><text font-family="Calibri,Calibri_MSFontService,sans-serif" font-weight="400" font-size="50" transform="matrix(1 0 0 1 294.481 661)">Soccer</text></g><g clip-path="url(#clip22)"><text font-family="Calibri,Calibri_MSFontService,sans-serif" font-weight="400" font-size="50" transform="matrix(1 0 0 1 29.7917 569)">Baseball Or Softball</text></g><g clip-path="url(#clip23)"><text font-family="Calibri,Calibri_MSFontService,sans-serif" font-weight="400" font-size="50" transform="matrix(1 0 0 1 262.512 478)">Football</text></g><g clip-path="url(#clip24)"><text font-family="Calibri,Calibri_MSFontService,sans-serif" font-weight="400" font-size="50" transform="matrix(1 0 0 1 229.489 386)">Volleyball</text></g><g clip-path="url(#clip25)"><text font-family="Calibri,Calibri_MSFontService,sans-serif" font-weight="400" font-size="50" transform="matrix(1 0 0 1 219.543 294)">Basketball</text></g><g clip-path="url(#clip26)"><text font-family="Calibri,Calibri_MSFontService,sans-serif" font-weight="400" font-size="50" transform="matrix(1 0 0 1 187.986 202)">Other Sport</text></g><g clip-path="url(#clip27)"><text font-family="Calibri,Calibri_MSFontService,sans-serif" font-weight="400" font-size="50" transform="matrix(1 0 0 1 260.862 111)">Running</text></g><rect x="0.499836" y="0.499836" width="2145" height="1091" stroke="#161C82" stroke-width="3.4375" stroke-linejoin="round" stroke-miterlimit="10" fill="none"/></g></svg>