<?xml version="1.0" encoding="UTF-8"?>
<svg width="128pt" height="128pt" version="1.1" viewBox="0 0 128 128" xmlns="http://www.w3.org/2000/svg">
 <path d="m112.26 63.105-0.38281-0.51172 0.12891-0.76953h-0.38672l-0.64063-0.89453 0.12891-0.51172-0.76953-0.76953 0.12891-0.25781-0.76953-0.64062v-0.89453l-0.25781-0.64062-1.6641-1.6641-1.1523-13.312-1.0234-0.25781-1.4062 0.38281-0.64062-0.64062-2.9453-0.76953-0.76953-0.76953-1.793-0.76953-0.76953 0.89453h-1.4062l-0.38281-0.51172-1.2812 0.51172v0.25781l-1.1523-0.25781-1.4062 0.64062-0.76562 0.39453h-0.64062l-0.12891 0.51172-0.64062-0.64062-1.9219-0.38281-0.76953-0.64062-2.043 0.76953 0.12891 0.25781-0.51172 0.76953-0.51172-0.51172v-0.89453l-1.5352 0.76953-0.38281-0.64844h-0.76953l-0.12891-0.51172-0.38281-0.25391-1.5352 1.1523-0.64062-0.12891v-0.76953l-0.89453-0.25781-0.12891-1.0234h-1.9219l-0.64062 0.64062-0.89453-0.76953-1.0234 0.25781-1.793-0.64062-1.2812 0.12891-0.25781-1.0234-1.1523-1.0234-0.50781 0.64062-0.89453-0.25781-0.64062 0.25781-1.6641-1.5352h-0.89453l-0.38281-16.641-20.996 0.25391-0.25781 38.656-26.113-0.64062 0.38281 1.4062 1.9219 1.1523 0.89453 1.793 1.6641 0.76953 1.1523 1.6641 6.3984 5.2461 1.793 6.7852 1.9219 2.5586 5.7617 4.4805 3.0703 0.64063 3.7109-6.7852 1.5352-0.51172 1.5352 0.38281 6.0156-0.25781 5.7617 5.7617 2.8164 6.2734 2.3047 2.3047 1.2812 2.5586 2.4336 1.5352 2.3047 6.5273 2.5586 3.457 2.4336 1.4062 2.0469 0.12891 2.1758 1.0234 3.8398 0.12891 2.6875 1.1523 2.4336 0.12891 0.12891-0.25781-0.76953-0.37891-1.0234-2.4336-0.25781-0.25781-1.2812-4.8633 0.64063-0.38281v-1.793l-0.12891-0.25781-0.89453-0.12891-0.38281-0.25781 0.12891-0.51172 1.0234-0.12891 0.38281 0.38281 0.64062-0.51172 0.12891-2.8164-0.76953-1.2812 1.9219-0.51172 0.64062-1.4062-0.25781-0.25-0.76953 0.25781v-0.51172l1.2812-0.89453h0.51172l0.76953-1.0234 0.12891-0.51172 0.25781-0.38281 1.2812-0.12891 0.51172-0.38281v-0.64062l-0.76953-0.64062v-0.64062l0.12891-0.38281 0.64063 0.25781 0.51172 0.38281 0.12891-0.12891v-0.64062l0.12891-0.25781 0.25781 0.12891 0.38281 0.64062h0.25781l0.38281-0.25781 0.12891-0.64062 0.12891-0.12891 0.38281 1.1523 2.1758-0.89453h0.25781l-0.12891 0.12891-2.9453 1.5352-0.13672 0.63672 0.25781 0.12891 6.7852-4.4805 0.89453-2.8164-0.12891-4.3516 0.38281-0.38281 0.38281-0.25781h0.25781l0.25781 1.5352h0.89453l-0.12891 0.51172-0.76953 0.38281 0.25781 0.12891 4.0977-2.3047 2.3047-0.25781-0.38672-0.89062 0.64062-0.76953 0.25781-0.89453 0.51172-0.64062 0.12891-0.64062-0.25781-1.2773-0.38281-0.51172 0.38281-0.89453-0.38281-0.76953 1.0234-2.4336-0.12891-0.64063 0.25781-0.38281-0.38281-0.51172z" fill="#fff"/>
</svg>
