<?xml version="1.0" encoding="UTF-8"?>
<svg width="128pt" height="128pt" version="1.1" viewBox="0 0 128 128" xmlns="http://www.w3.org/2000/svg">
 <path d="m111.74 86.656-1.0234-1.5352 0.64062-1.2812v-0.12891l-1.793-3.5859-1.0234-46.719s0-0.12891-0.12891-0.12891l-54.91 0.12891-13.824-0.25391h-0.12891v0.12891l1.9219 3.3281h0.12891 1.5352l1.793 0.64062 0.64062 0.76953-0.12891 0.37891-0.76953-0.51172h-0.12891l-0.64062 0.25781s-0.12891 0-0.12891 0.12891l-0.12891 2.0469-1.0234 1.2812-0.89453 0.38281s-0.12891 0-0.12891 0.12891v0.25781 0.12891l2.3047 1.793 1.2812 4.2227-0.51172 6.2734-0.76953-1.5352-0.38281-0.39062h-0.12891l-1.2812 0.38281-1.9219 3.1992-2.0469 1.6641-0.64062 1.0234v0.12891 0.12891l0.51172 0.25781-0.25781 1.2812h-1.5352v-2.4336l2.8164-5.1211 1.1523-0.51172 0.38281-0.64062 0.38281-1.9219-0.64062-1.793s0-0.12891-0.12891-0.12891l-2.5586 0.25781-2.9453-1.4062-3.0703 0.12891-13.434-5.1211h-0.12891l-0.89453 1.0234-0.76953 1.9219-0.12891 2.1758 0.25781 1.6641 2.5586 4.0977 3.1992 13.953 0.25781 0.25781h0.12891 0.12891l1.0234-1.2812 0.64062 0.89453-0.38281 1.2812-1.0273 1.5352v1.6641l0.38281 0.64062 0.76953 0.25781h0.12891l0.76953-0.12891 0.12891 0.38281-0.12891 4.2227-0.25781 0.64062-0.51172 0.125v-2.4336-0.12891l-0.89453-0.76562h-0.12891s-0.12891 0-0.12891 0.12891v4.9922 0.12891l1.5352 1.2812h0.12891 4.8633l6.3984 4.7344 0.76953 1.793 0.64062 5.6328s0 0.12891 0.12891 0.12891l5.8867 1.6602 3.7109-1.0234 2.3047-1.5352 6.1445 0.12891 1.9219 1.793h0.12891l6.7852-2.3047 1.793 0.89453 3.1992-0.51172 3.457-1.6641 3.5859-0.51172 1.1523-1.1523 6.1445-0.38281 1.1523-0.89453 26.496-0.51172c0.24609-0.13281 0.24609-0.25781 0.24609-0.38672v0z" fill="#fff"/>
</svg>
