<?xml version="1.0" encoding="UTF-8"?>
<svg width="128pt" height="128pt" version="1.1" viewBox="0 0 128 128" xmlns="http://www.w3.org/2000/svg">
 <path d="m103.04 95.105 0.12891-0.89453 2.1758-1.9219v-0.12891l-1.1523-1.793-1.2812-0.64063-2.3047-3.3281-0.12891-1.1523-8.4492-7.0391-36.602-31.613-0.64062-30.465h-30.719l1.2812 6.1445-0.77344 5.8867-1.9219 2.9453v2.0469l0.89453 0.76953 3.3281 5.7617 0.12891 0.76953-0.125 0.76172 1.1523 6.9102 4.4805 5.375 0.38281 1.0234v1.2812l0.25781 0.51172 1.1523 0.89453 0.89453 0.12891 0.25781 0.38281 0.51172 0.12891 0.51172-0.38281 0.12891-0.38281 0.12891-2.0469 1.9219 0.12891 1.6641 0.64062-0.64453 0.76562-0.89453 0.12891-0.76953 0.89453 0.25781 0.89453 1.4062 2.5586 0.12891 0.64062-1.9219-1.793-0.25781-0.76953-0.64062-0.12891-0.25781 1.1523 1.5352 5.5039 1.2812 1.4062 1.9219 0.38281 0.76953 1.4062v1.6641l-0.89453 0.76953 0.12891 1.9219 7.6797 9.3438 0.89453 0.51172 0.12891 1.6641 1.1523 0.64063 0.76953 1.0234 0.12891 0.38281-0.25781 1.0234 0.51172 3.457 0.38281 0.64062 3.8398 0.76953 1.793 0.89453 0.76953-0.51172 0.89453 0.39453 2.8164 1.2812 0.64063 0.89453 3.1992 1.4062 0.51172 0.64062 0.38281-0.89453h0.64062l1.793 1.4062 0.38281 1.5352 0.25781 0.25781 2.0469 0.12891 6.6562 5.5039 0.89453 1.4062 1.0234 5.1211 19.07-2.8164 0.64063-1.0234h1.2812l0.51172-1.4062-0.12891-1.0234-2.0469-1.0234 0.12891-1.2812-0.51172-0.76953-0.12891-1.0234 0.64062-0.25781 0.76953-1.5352 0.76563-1.4102 0.25781-0.38281-0.51172-2.3047z" fill="#fff"/>
</svg>
