<?xml version="1.0" encoding="UTF-8"?>
<svg width="128pt" height="128pt" version="1.1" viewBox="0 0 128 128" xmlns="http://www.w3.org/2000/svg">
 <path d="m111.74 54.273-0.25781-0.51172 0.51172-2.0469v-0.12891h-0.12891l-22.273 1.0234-31.23 0.51172-0.51172 0.51172-13.824-0.12891-0.12891-0.38281h-0.12891l-2.4336-0.25781h-0.12891v0.12891l0.38281 2.5586-15.359-0.38281h-0.12891l-0.25781 0.51172-0.25781-1.2812s0-0.12891-0.12891-0.12891l-0.76953 0.12891 0.38281 2.3047-0.75 0.76953 0.64063 0.89453-1.2812 0.12891h-0.12891v0.12891l0.89453 1.5352-1.4062 1.793v0.12891l0.64063 1.2812-1.1523 0.12891h-0.12891v0.12891l0.51172 0.64062-0.25781 0.38281-2.1719 1.0195v0.12891l0.51172 1.2812-0.64063 0.51172v0.12891l0.38281 0.89453-0.89453 0.12891-1.2812 2.3047 0.12891 2.9453h-0.89453-0.12891l-0.38281 1.0234-1.0234 0.38281v0.12891s0 0.12891 0.12891 0.12891l23.809 0.64062h28.801l14.594-0.25781s0.12891 0 0.12891-0.12891l0.25781-2.9453 0.64063-0.51172h1.6641 0.12891l0.64062-2.1758 1.4062-1.2812 1.5352-0.64063 2.6875-0.12891 3.5859-2.8164 1.9219-0.38281 0.89453-1.4062v-0.76953l0.75781-0.12891h0.12891l0.38281-0.89453 1.4062-0.89453 0.76953 1.2812h0.12891l2.8164-2.5586 0.89453-0.38281 1.4062 0.64062h0.12891l1.6641-2.9453 1.0234-0.76953 1.0234 0.12891h0.12891v-0.12891l-0.38281-0.76953z" fill="#fff"/>
</svg>
