<?xml version="1.0" encoding="UTF-8"?>
<svg width="128pt" height="128pt" version="1.1" viewBox="0 0 128 128" xmlns="http://www.w3.org/2000/svg">
 <path d="m112.13 91.008-0.64062-12.289-7.6797-16.641-0.38281-5.8867-6.2734-9.3438-6.5273-19.328 0.51172-1.2812v-0.12891 0l-5.6328-1.1523h-0.12891l-0.89453 1.1523v0.12891l0.51172 2.3047-0.25781 2.6875-1.4062 0.12891-0.51172-0.64062-0.38281-2.0469s0-0.12891-0.12891-0.12891l-32.383-1.2812-1.0234-1.5352-0.64063-2.4336h-0.12891l-31.871-0.12891s-0.12891 0-0.12891 0.12891l-0.25781 2.0469v0.12891l2.6875 2.9453-0.51172 1.6641 0.25781 2.3047v0.12891h0.12891l1.9219-1.793 1.1523-0.12891 1.1523-0.89453h0.25781v0.51172l-0.64062 1.6641v0.12891c0 0.12891 0 0 0.12891 0l9.0898-1.1523 0.89453 0.38281-0.12891 0.64062-0.64062 0.25781v0.12891l0.12891 0.38281 9.7266 4.9922 2.1758 3.3281 0.89453 0.76953h0.12891l6.3984-1.2812 3.1992-1.6641h1.4062l0.25781-0.12891 0.12891-1.1523 1.1523-0.89453h3.0703l2.1758 0.76953 3.8398 4.0977 1.1523 0.51172 0.12891 2.1758v0.12891l1.1523 0.51172 2.4336 2.8164 4.2227 1.9219 0.51172 0.76953 0.51172 17.535 0.12891 0.25781h0.12891 1.0234s0.12891 0 0.12891-0.12891l0.12891-2.0469 0.89453 0.25781 0.89453 0.76953-1.2812 4.9922 0.38281 2.4336 4.7344 6.7852 0.51172 0.25781h0.12891l1.6641-0.64062 0.76953 3.8398h0.12891l1.0234-0.38281 0.12891 0.12891-0.64062 1.0234-0.12891 0.89453v0.12891l2.1758 2.8164 1.793 4.4805 1.2812 1.2812h2.0469l1.2812 1.1523 2.5586 4.8633v2.9453l0.25781 0.51172 1.0234 0.76953 5.375-0.89453 2.8164-1.5352 1.793 0.76953h0.12891l1.0234-1.793v-0.12891l-1.0234-0.76953z" fill="#fff"/>
</svg>
